<svg xmlns="http://www.w3.org/2000/svg" viewBox="0 0 168.72 173.42"><title>mending-macaw</title><path d="M60.4,4.8c.38-.09.42.16.75.1C60.93,4.79,60.43,4.18,60.4,4.8Z" fill-rule="evenodd"/><path d="M60.83,8.34h-.54C60.3,8.84,60.83,8.84,60.83,8.34Z" fill-rule="evenodd"/><path d="M64.91,8.77c-.07.39.22.42.54.43C65.46,8.86,65.17,8.83,64.91,8.77Z" fill-rule="evenodd"/><path d="M64.48,9.63c-1.12,1-5.21,3.06-5.26,4.29C61,13.15,64.26,11.06,64.48,9.63Z" fill-rule="evenodd"/><path d="M44.3,10.59C43.58,10.77,44.3,12.05,44.3,10.59Z" fill-rule="evenodd"/><path d="M64.91,11c-.93,0-4.82,3.54-3.86,3.87C61.3,13.38,64.48,12.71,64.91,11Z" fill-rule="evenodd"/><path d="M68.56,11.77c0,.26.47.07.54,0C69,11.4,68.72,11.65,68.56,11.77Z" fill-rule="evenodd"/><path d="M44.41,12.31c-.29,0-.52.25-.32.43C44.37,12.77,44.36,12.52,44.41,12.31Z" fill-rule="evenodd"/><path d="M38.29,13a.54.54,0,0,0-.21,1A2.12,2.12,0,0,0,38.29,13Z" fill-rule="evenodd"/><path d="M60,22c-.73,0-1.64.41-1.5,1C59.1,22.74,59.87,22.69,60,22Z" fill-rule="evenodd"/><path d="M53.53,22.19a6.59,6.59,0,0,1-2.36.53C51.54,23,53.88,22.74,53.53,22.19Z" fill-rule="evenodd"/><path d="M.4,23.26c.37.07.39-.38.22-.54C.38,22.74.39,23,.4,23.26Z" fill-rule="evenodd"/><path d="M24.45,23.9c-.23.1-.15.78.21.65C24.71,24.21,24.51,24.13,24.45,23.9Z" fill-rule="evenodd"/><path d="M48,25.3c-.65-.16-1.16.88-1.07,1.72C47.33,26.75,47.48,25.84,48,25.3Z" fill-rule="evenodd"/><path d="M50,30.45c-1.24-.08-.05.69.22.75C50.24,30.93,49.89,30.71,50,30.45Z" fill-rule="evenodd"/><path d="M49.78,31.42c-.34.16.31.46.43.21S49.79,31.62,49.78,31.42Z" fill-rule="evenodd"/><path d="M46,31.52c-.64,0-.54.81-.11.86Z" fill-rule="evenodd"/><path d="M50.21,32c-.81-.17,0,.6,0,.86C50.71,32.6,50.21,32.18,50.21,32Z" fill-rule="evenodd"/><path d="M65,32.7c.06.7-2.67,1.39-3.11,1.4C63.17,35.16,66,32.64,65,32.7Z" fill-rule="evenodd"/><path d="M58.69,36.25a1.54,1.54,0,0,0,.21,1.18c.33-.59,2,.82,2.58,1A4.93,4.93,0,0,0,58.69,36.25Z" fill-rule="evenodd"/><path d="M74.79,37.75c-.36-.17-.43-.46-.22-.86C73.76,37.41,74.86,38.85,74.79,37.75Z" fill-rule="evenodd"/><path d="M56.32,37.1c.59.63,2,3.68,2.58,3.87C59.79,40.73,57.49,37,56.32,37.1Z" fill-rule="evenodd"/><path d="M74.25,38.5c.11.25.58,1.6,1,1.29C74,39,76,38.66,74.25,38.5Z" fill-rule="evenodd"/><path d="M22.84,38.61c.44.52,1.55,1.28,2.25,1A4,4,0,0,0,22.84,38.61Z" fill-rule="evenodd"/><path d="M21.87,38.82c-.25,0-.5.07-.43.43C21.69,39.21,21.94,39.18,21.87,38.82Z" fill-rule="evenodd"/><path d="M25.52,41.51c-.75-1.22-2.41-1.39-3.44-2.26,0,.25-.17.32-.42.22a.87.87,0,0,0,1.18.32l-.43.43A8.93,8.93,0,0,1,25.52,41.51Z" fill-rule="evenodd"/><path d="M25.41,39.79c-.16.09.28.89.48.43C26.23,39.45,25.38,40.32,25.41,39.79Z" fill-rule="evenodd"/><path d="M25.52,42.26a8.19,8.19,0,0,0,1.07.53c.07-.36-.71-1.4-1-1.39Z" fill-rule="evenodd"/><path d="M72.32,42.58c0,.53-1.4,3-2,2.9C70.35,46.06,73.44,43.34,72.32,42.58Z" fill-rule="evenodd"/><path d="M58.26,44.08c0-.13.07-.79-.43-.32C57.69,44.23,57.83,44.34,58.26,44.08Z" fill-rule="evenodd"/><path d="M58.26,44.08c.3.58,2.87,2.76,3,1.72a1,1,0,0,0,.32.43C62.37,46.19,58.6,44.13,58.26,44.08Z" fill-rule="evenodd"/><path d="M22.94,43.76c-.91.37,2.32,1.22,2,1.07C24.61,44.1,23,44.51,22.94,43.76Z" fill-rule="evenodd"/><path d="M46.13,44.08c-.26.07,3.2,4.69,3.32,5.37C50.17,49,46.21,44.2,46.13,44.08Z" fill-rule="evenodd"/><path d="M10,44.62c-.48,0-.08.63.21.53C10.12,45,9.86,45,10,44.62Z" fill-rule="evenodd"/><path d="M52.35,48.48c-.37.33-.26.58.32.75,0-1.09-.94-3.24-2.14-3.65C51.06,46.2,51.31,48.33,52.35,48.48Z" fill-rule="evenodd"/><path d="M54.39,51.7c0,.21,3.59,5.28,4.3,5.58C59.29,56,55.88,51.57,54.39,51.7Z" fill-rule="evenodd"/><path d="M140.69,55.78c-.4.31-.86.57-.86,1.29A1.41,1.41,0,0,0,140.69,55.78Z" fill-rule="evenodd"/><path d="M4.91,56.85c-.65.36,7,6.47,7.62,5.69C11.67,62.72,6,58.11,4.91,56.85Z" fill-rule="evenodd"/><path d="M31.85,58.25C30.82,58.48,32,59,31.85,58.25Z" fill-rule="evenodd"/><path d="M66.2,58.89c-.26,0-1.65-.37-1.83.33a9.76,9.76,0,0,0,3.76-.43C68,57.94,66.46,58.78,66.2,58.89Z" fill-rule="evenodd"/><path d="M61.8,58.89c.24.38,1.5.67,1.72.11C63,59.25,62.38,58.93,61.8,58.89Z" fill-rule="evenodd"/><path d="M64.16,59l-.75.43A.44.44,0,0,0,64.16,59Z" fill-rule="evenodd"/><path d="M74.14,61.36c-.69-.15.3,1.4.43,1.61C75.43,62.58,74.13,61.53,74.14,61.36Z" fill-rule="evenodd"/><path d="M69.2,61.47C68.46,61.32,69.1,62.42,69.2,61.47Z" fill-rule="evenodd"/><path d="M69.31,62.22c-.06.39,1.78,2.6,1.72,1.72C69.92,63.83,70.44,62.47,69.31,62.22Z" fill-rule="evenodd"/><path d="M66.09,64.05c.28-.07,3.33,6.27,4.29,6.76C70.24,67.78,67.2,66.39,66.09,64.05Z" fill-rule="evenodd"/><path d="M25.09,66c-.06.38.12.52.21.75C25.66,66.69,25.63,65.77,25.09,66Z" fill-rule="evenodd"/><path d="M25.2,66.84c.33.92,1.08,1.23,1.39,2C27.71,68.5,25.62,66.89,25.2,66.84Z" fill-rule="evenodd"/><path d="M99.37,86.16c-.39-.11-.19.46-.11.53C99.51,86.53,99.42,86.43,99.37,86.16Z" fill-rule="evenodd"/><path d="M129.53,89.16c.19-.09.27-.3.64-.21C130.08,88.54,129.46,88.78,129.53,89.16Z" fill-rule="evenodd"/><path d="M134.14,103.87c-.65.85.85,1.16,1,1.93C135.44,104.93,134.08,104.83,134.14,103.87Z" fill-rule="evenodd"/><path d="M116,108.48c-.27,0-.21.36-.21.65C116.44,109,115.75,108.81,116,108.48Z" fill-rule="evenodd"/><path d="M116,109.34c0,.14.31.53.11.54C116.45,110.21,116.52,109.25,116,109.34Z" fill-rule="evenodd"/><path d="M141.33,112.67c-.5.07.72,1.07.65,1.07Z" fill-rule="evenodd"/><path d="M69.42,120.29c-.79.49-.35,0-.32,1A.85.85,0,0,0,69.42,120.29Z" fill-rule="evenodd"/><path d="M47.84,120.93c-.17,0-.17.67,0,.65C48.33,121.58,47.88,121.08,47.84,120.93Z" fill-rule="evenodd"/><path d="M127.27,121c-1.15-.16,1.16,6.66.86,7.41C129.06,127.44,127.61,122.13,127.27,121Z" fill-rule="evenodd"/><path d="M73.18,128.88c-.34,0-.34.38-.43.64C73.1,129.52,73.16,129.21,73.18,128.88Z" fill-rule="evenodd"/><path d="M73.28,131.35c.2.38,1.83.64,2.26.53A2.17,2.17,0,0,0,73.28,131.35Z" fill-rule="evenodd"/><path d="M157.65,131.77c0,.16.11.57.19.55C158.26,132.19,158.11,131.81,157.65,131.77Z" fill-rule="evenodd"/><path d="M50.31,131.88,49.78,133C50.52,133.18,50.74,132.5,50.31,131.88Z" fill-rule="evenodd"/><path d="M157.54,133.49c.22-.14.2-.52.64-.43C158.13,132.41,157.36,132.94,157.54,133.49Z" fill-rule="evenodd"/><path d="M157.86,133.6c-.62.42-.58.67.11.75C158,134.37,157.84,133.53,157.86,133.6Z" fill-rule="evenodd"/><path d="M42.05,137.14c-.65.49-.24,1.4-.11,2.26C42.19,138.74,41.87,138.15,42.05,137.14Z" fill-rule="evenodd"/><path d="M128.78,138c-.15.17-.52.13-.43.54C128.63,138.5,128.71,138.25,128.78,138Z" fill-rule="evenodd"/><path d="M42.26,139.5C41.33,139.5,42.23,140.66,42.26,139.5Z" fill-rule="evenodd"/><path d="M64.7,144.33c-.37,0-.46.62,0,.54Z" fill-rule="evenodd"/><path d="M119.33,146.91c-.23,0-.23.27-.21.54C119.49,147.52,119.5,147.07,119.33,146.91Z" fill-rule="evenodd"/><path d="M117.93,149.7c-.77.71.1.83.22,1.39A7.32,7.32,0,0,0,117.93,149.7Z" fill-rule="evenodd"/><path d="M77.79,152.28c-.62-.06-.93,3.75.11,3.75A36.13,36.13,0,0,0,77.79,152.28Z" fill-rule="evenodd"/><path d="M151,152.49C149.91,152.42,150.93,153.41,151,152.49Z" fill-rule="evenodd"/><path d="M136.29,152.49c-.39-.07-.42.22-.43.54C136.29,153.13,136.19,152.72,136.29,152.49Z" fill-rule="evenodd"/><path d="M136.4,153.13c-.91.58.31,3.19.1,3.87a3.23,3.23,0,0,0,.54-.11C136.43,155.79,136.66,154.32,136.4,153.13Z" fill-rule="evenodd"/><path d="M33.14,158.29a.91.91,0,0,0-.22.64C33.32,158.9,33.23,158.55,33.14,158.29Z" fill-rule="evenodd"/><path d="M15.64,158.29c-.72.19.23,1.46,0,1.82a.32.32,0,0,1,.43,0A7.1,7.1,0,0,0,15.64,158.29Z" fill-rule="evenodd"/><path d="M33.35,159.14c-.39-1-.81,1.69-.43.86C33.68,160.13,32.89,159.1,33.35,159.14Z" fill-rule="evenodd"/><path d="M141,159.25c.25.21-.2.69.11,1C141.54,160.09,141.36,159.33,141,159.25Z" fill-rule="evenodd"/><path d="M16,160.32c.1.36.34.59.42,1C16.47,161.18,16.55,160.14,16,160.32Z" fill-rule="evenodd"/><path d="M47.42,59.86c.44.86,3.29.79,4.07,1.4.26-2.2-6.19-4.16-8.6-4.83a3.46,3.46,0,0,0-.17.92c1.46-.4,6.84,1.94,7.59,2.62-2.64-.61-5-1.75-7.61-2.41C42.58,58.71,46.21,59.38,47.42,59.86Zm3.43-.11C50.79,60.28,50.43,60.12,50.85,59.75Z"/><path d="M168.7,133.38a41.2,41.2,0,0,0-.64-7.29c-.89-4.31-.35-8.16-.75-12.35-.38-4-2-8.68-3.27-12.3-1.35-3.78-3.78-4.77-6.28-7.45-2.28-2.43-2.41-6.11-5.23-8-2.37-1.57-5.48-1.17-7.23-4-1.2-2-.8-5.16-1.39-7.62-.32-1.35-1.6-7.78-1.29-2.79a8.28,8.28,0,0,0-1.72-3.11.34.34,0,0,0,.11.43,4.24,4.24,0,0,1-1.5-1.08c1.16-1.57,10,2.69,4.61-3,.22-.72,1.19.56.33-1.24a12.69,12.69,0,0,0-2.9-3.49c-4-3.74-.45-.45-2.15-1.5-2.29-1.41-3.33-1.68-4.84-4-4.28-6.45-6.85-10.12-13-15.69.31-1.14,11.73,7.2,12.45,7.73C138,46.5,124,32.47,124.16,34c1.9,3,5.25-1.12,1.5-1.07.2-1.63.69-1.84-.64-3.33-.78-.86-6.12-4.13-6.23-3.33-4.9-1.42-11.44-5.88-17-8.6A210.14,210.14,0,0,0,81.53,8.72c-8.75-3.21-18-7-27.35-6.28C48.81,2.82,41.69,4,37.54.61,35,.92,36.2,4.19,34.43,4.9,34.29,3.78,36.2,1,35.34,0c-.44-.5-3.21,4.23-3,5.08,1.4-.36,1.59-2.47,2.25-3.44.6,1.63-1,3.2-1,3.87a.3.3,0,0,1,.43,0C31.88,8,30.43,16.64,30.89,19.07c0,0-.15,2.54.8,2.2-.85.31,3.35-21,6-18.73a.49.49,0,0,1-.75.22c.28.18-4.78,13.92-3.55,13.74a10.59,10.59,0,0,1,1.18-3.33c-.28,1.81-.92,3.92-1.23,5.58,0-.05-1.1.68-1.13,1.13-.06,1.06,1.74,3.43,1.94,4.56.63.1.32-.67.32-.75C36.49,22,34,35.4,33.35,34.53q-.36-.66-.75-1.29c-.34-.16-.68.94-.64.86-1.09-.51.6-1.7.54-1,0-1.15,2.61-8.37.75-7.94A31.88,31.88,0,0,0,32,32.28c-2.83-4.62,0-1.08.32-1.62-.16-.8-.61-4.23-1.18-4.93-.83.48.25,1.93.11,2.57-2.8-2.61-.66-6-1.08-9.44a17,17,0,0,0-2.46,4.4c0,.64,1.1.26,1.28,0,.58.68.27,3.54.54,4.29s2.15,3,1.4,1.18c0,0-.35,6.38-.22,7.19-.88-2.23-2-12.25-4.19-12.55a9.17,9.17,0,0,1,1,3.11c-.31-.19-3.16-5.3-3.65-3.65.34,1.78,3.35,3.65,4.24,5.91s.46,4.89,1.34,7c-1.68-2-.15-5.87-2.47-6.76a6.28,6.28,0,0,1,.22,2.47c-.94-2.29-1.25-3.68-2.9-5.16a.56.56,0,0,0-.64.54,4.81,4.81,0,0,1-1.08-3.33c1.27,1.06,1.76,2.64,2.79,3.87.72-.11-2.17-4.84-3-5.37-.91.66.6,1.66-.11,2.47-.75-1.37-.6-3.64-2.15-4.51-.61,1.26,1.94,5,2.37,6.12a4.24,4.24,0,0,0-1-.32c0,2.18,1.48,4.35,1.07,6.55-1.3-1.82-.38-6.1-2.79-7.52a.46.46,0,0,1-.53.11c.29.84.54,1.7.75,2.57C18.67,24,12.68,17.8,14.46,13.6a11.75,11.75,0,0,0,1.4,1.82c-.78-1.18-2.23-3.87-2.36-5.29-.29-3.11.3-1.23,2-4,1,.57.72,3.74.53,4.5a.84.84,0,0,0,.54-1.18,20.14,20.14,0,0,1,1.72,3.87,6.46,6.46,0,0,0,.75-.11c-.56-1.45-1.06-2.92-1.5-4.4,2.53,1.58,1.8,8.08,4.08,9.34C21.52,16.3,16.34,4.2,17.9,3.94c.46.84,1.89,2.47,1.5,3.43,2.16.06,2.76,9.88,2.9,11a.51.51,0,0,0-.11.75c.65.09.95-.1,1.07-.64,1.92,5,3,2.29,2.58-2,.18,0-1.1-.08-.54.43-2.08,0-.95-10.4-2.57-10.73a7.21,7.21,0,0,1,.43,3.75c-1.36-1.26-1.09-4.14-2.58-5.9a3.56,3.56,0,0,1,2.26-.43c-.24.41-.44,4.85.42.86.63,2,.12,3.19,1.94,3.86.09-1.74-1.19-3.39-.54-5.15.34.42.81,3.31.43,3.11a.72.72,0,0,1,.64.11c.21-.46,1.72-3.43,1.72-3.44,1.72,3.68-.55,10.63-.75,13.49-.1,1.39,1,4-.75,5.62a.7.7,0,0,1,.21.43c2.09.13,1.53-8.17,1.76-9.31.43-2.19,1.75-3.45,2-6,.28-.11.45,0,.54.22-.31.89-1.4,10.49-.11,10.41a35,35,0,0,1,.38-8.32c.2-1.59,2.2-8.7,1-9.26-1.58-.72-2,4.82-1.68,5.45.28-.81.53-1.64.75-2.47.37.67.08,3.31-.65,3.86a1,1,0,0,1,0-1.07c-.64-.09-1.19,2.82-1.28,3.33.68.17,0-.41.21.43-.47-.84.22-7.12-.54-7.84-1-.93-2.86.66-2.14,1.72-1.59-.53.45-1.42-1.75-1.37-.64,0-1.51.4-2.22.5-2.33.32-5.54-.31-5.91,1.94.59.09-1.48-.87-1.28-.53-.38,1.33.45,1.19-1,2.42s-4,.66-5.05,1.6c-1.68,1.46-.68,4-1.28,5-2.81-2.13-1.27-1.64-3.44-1-2.34.72-.82-1.7-2.55,1.83-.31.62-.37,4.66.08,4.93a1.15,1.15,0,0,1-.75-1.72c-1.67-.8.3,3.17.54,2.9a2.91,2.91,0,0,1-.43-.43.54.54,0,0,0-.11.86,2.26,2.26,0,0,0-.54-.32c-.42,1.59,3.92,4.29,4.83,4.72-.28-1.34-1.8-1.61-2.14-2.9a1.57,1.57,0,0,1,.64.11c-.18.17,2.6,3.31,3.33,3.33-.45-1.2-2-1.65-1.93-3.12a.59.59,0,0,0,.75.11c-1.47-.68-2-1.73-3.22-2.79,2,.12,3.88,2.94,5.25,4.59,2.21,2.65,4.86,4.86,6.45,7.86.07-1.14-11.34-7.63-12-7.41,1.83,1.06,9,5.28,8.69,6.77C6.89,32.16,3.59,24.7.08,23.26c-.34.45.49,3.44.64,4.61S.09,29.52,1,31.13a28.16,28.16,0,0,0,3,2.62c3.73,2.53,4.89,1.75,2.46,5.74C2.58,45.9,1.14,52.65,3.09,60.18a53.67,53.67,0,0,0,9.44,19.75c5.25,6.53,10.27,15.2,17.6,20.5-.95.54-.91,1.07-1.07,1.72-.41-1.33-11.37,12-11.81,13-1,2.41-1.14,5.82-2.75,8.16-.66,1-6.16,6.1-4.44,7.83a.75.75,0,0,1,1-.11,1.29,1.29,0,0,0-.43,1.4.76.76,0,0,0-.54-.43c1,.93-3.5,6.87-2.47,6.87-.23.86-3,5.48-1.93,5.47,0,1.59-1.67,5.37-2,7.48a21.88,21.88,0,0,0-.38,6.91c-1.4,0,1.82,8-.11,9,4,2.18,1-7.58,2.15-8.16-.38-1.18-.1-3.61-.64-5.15a.83.83,0,0,0,.75,0c-1.14,1.3,1,12.4,1.18,14.17a.68.68,0,0,1,.64.11c-.18-5.59.28-11.94-.54-17.28C9,156.7,8.07,162.23,8.67,168.05a1.52,1.52,0,0,0,.75.22c.58-1.46-.11-4-.22-5.36-.34-4.36,0-8.85,0-13.21a88.27,88.27,0,0,1,2.85,11.43c.22,1.13,0,5,1.12,6.28,1.17-.4-.26-14.81-.1-16.21.86.31,1.67,6.22,2.15,7.09,1.25-1.71-2.26-10.43-2-12.84a14.84,14.84,0,0,1,.83-3.43c.77-1.16.89-.2,2.11-1.19.53-.43,1.21-1.11,1.06-1.86.5.46-.53,3.54-.53,3.8-.09,2.64.18,2.43,1.29,4.14,1.29,2,2.41,3.53,2.57-1,1.08,1.43,3.44,8,3.44.75.39.81.75,1.63,1.07,2.47-2.15.65,1.46,9.92-.11,12.13.31,1.66.49,6.36,1.5,8.48,0,0-.87-15.92-1-17.71.24,2.33,3.25,18,2.79,17.93a4.4,4.4,0,0,0,0,2.68,1.1,1.1,0,0,1,.75.21c1.9-2.92.55-10.57.36-14.2-.17-3.44.35-8.38-1.11-11.45.1-.15,5.22-4.17,1.39-4.4,0,.3-.59,2.84-.1,2.9a.36.36,0,0,0-.54.21c-.69-2.26-.17-5.15-1.29-7.19a.59.59,0,0,1-.64-.11c-.74,2,1.88,7.82.32,9.23-1.18-.92-.77-3.82-1.93-5.15-1.39.57.26,4.19,0,5.48a13.53,13.53,0,0,1-1.5-5.59,7,7,0,0,1-.76.19c-1,1.75.63,4.37-.53,6-1-1-1.92-4.48-1.72-6a4.85,4.85,0,0,1-.75-.11c-.72,1.51.19,4-1,5.15-.45-.37-.94-1.94-.1-2,.09.12-1.37-2.13-1.4-1.29-.36-5.33,1.74-7.85,3.22-11.7.83.91,1.47,2.7,2.9,2.9-.87.31-3,1.24-1.29,2.14.48.25,3.26-1.39,4-1.33,1.72.16.74,2,2.75,1.12,1.09,2.57,1,1.09,2.9.75-.74,1.08.45,3.65,1.72,1.29a1.69,1.69,0,0,0,1.18.86,2.12,2.12,0,0,0,.21-2.15,5.62,5.62,0,0,1,.65.64c.44.63.84-2,1.07-2.25,2.71.35.77-7.51.54-8-.29-.36-.45-.82-.75-1.18-1.18-.19-.61,8-.65,8.48-1-1.8,0-5-1.93-5.91-.51,3-1.45,5.94-1.07,9.66-1-.8.15-7-1.51-6.86,0,1.65-1,3.3-1.07,5.25-1.08-1.09-.2-2.76-1-4-.82.16-1.17,1.9-1.18,2.47-.62-.55-.54-1.49-1.15-1.88-.35-.23-1.19,1-1.74.92a3.92,3.92,0,0,0,.21-2.37,2.23,2.23,0,0,0-1,1.94c.05-1.33.05-2.65,0-4,.31,0,.83.83,1.29,0a.69.69,0,0,0-.1.85c.73.09,3.88-1.85,3.22-3.54,1.43-.21.86.92.82-1.18,0-1.78-1.69-3.78-1.47-5.26-1.46.46-.32,3.64-.32,5-1.24-.86.11-3.13-1.61-3.55,0,1.92.92,5.56-.11,6.66-.4-1.59-.53-3.82-1.88-4.08-.75-.15.66,2.86-1.23.75-.84,3,1.87,5.29.21,7.94-.94-.81-1.75-3.27-3.11-3.54A7.51,7.51,0,0,1,19.51,134c-.21-1.18.63-1.27.21-2.36-.51-.26-.53.52-.86.64-.9-2.61,3.27-6,3.12-8.69-.28.15-.46.08-.54-.22-.11.11-.21.22-.32.32a2.11,2.11,0,0,0,.54.22c-2.16,2.42-5.51,11.94-5.91,16.53-1.27-.29.51-5.92.75-6.87a1.52,1.52,0,0,0-.75-.22c-2.43,3.21-1.63,7.76-2.68,10.84,0,0-.46-2.95-.43-1.39-1-.79,1.1-1.89.53-2.68-.12,0-.17,1.06-.21,1-1.1-.36,1.47-11,1.61-12.77.2,0-.71-.17-.54-.22-.69,1.68-1.62,2.56-1.39,4.3,0,0-3.42,10.85-3.54,11a2.24,2.24,0,0,0-.63-1.67c-.69-.36.94,12.35-.34,13.69.38-2.27-1.16-5.27-1.49-7.68-.42-3.06-.37-3.94,1-7.47.83-2.08,6.12-10.25,4-11.79,1.38-2,2.13-4,4.19-5.37.1.21.33,3.08.32,3.11,1.78-1.47,2.84-5.62,4.57-7.61,1.52-1.76,3.63-2.46,5.37-4a11,11,0,0,0,3-6c.08-.56.54-3.68-.08-4.18-.91-.72-1.73.83-1.29,1.51.26,0-6.42,9-6.65,10.3,1.92,0,6.65-8.62,7-10.2,3.35,4.14-4.31,9.22-6.86,10.95a3.88,3.88,0,0,1-.11-.75c-1.71,1.77-2.9,4.05-4.51,5.9.85-6.27,3.76-10.2,8.11-15.42,1.31-1.56,2.89-3.83,5-4.54a5.76,5.76,0,0,1,1.21-1.4c1.32,1.08,2.64,2.16,4,3.22.78.46,2.51,1.93,3.75,1.51.29-1.75-2.2-3-3.51-4.44-2-2.13-3.66-5.8-4.53-8.94-.4-1.44-.53-3.36-.87-5.26-.75-4.18-2.82-6.1.65-8.84,1.61,4.66,8.33,6.21,12.47,7.23,1.09.27,4,0,4.7.61,2.4,2.06-.8,5.83-1.07,8,.25,0-1.89-1.25-.86.64-1.28-2-9.54,2.65-10.84,4.51,1.32.25,4.25-1.89,5.44-2.39,1.37-.58,3.78-.76,4.76-1.15a1.12,1.12,0,0,0-.22,1.07,2.29,2.29,0,0,0,1.5-1.5c.11,2.68-4.73,3.78-6.65,5a.72.72,0,0,1,.21-1,.66.66,0,0,0-.64-.32c-.08,1.66-1.83,1.68.9,1.81,1.77.09,3.92-2.58,5.65-2.88a2.14,2.14,0,0,1-.32.64,5.09,5.09,0,0,0,2.79-2.25c1.75.56-4.58,7.32-5.05,7.83-.76-1.51,1.84-3.77,1.83-4.83-3.65,1.12-4,9.31,1.28,3.22-1,1.82.51,5.49,1.19,3a1.19,1.19,0,0,1-.11,1.39,13.06,13.06,0,0,1,1.67-.11c.55-.09.82-1.05,1.23-1.39.09-.08,3.25-2.16,1.39-2.79a1.2,1.2,0,0,0,0,.75c-1-.22.47.36-.75.65a6.34,6.34,0,0,1,.32-2.15c-1.3-.48-1.88,3.69-2.68,4.29-.67-2.08,2-3.65,2-5.69-1.43-.59-3.81,4.67-4.08,4.94-2-1.5,4.13-9.39,5.26-8.91-.41.48-.79,1.49-.32,2,.27-.25,2.88-1.33,2.47-2-2.85.66-1.5.78-1.61-1.71.53.46.79,1.77,1.82,1.07-.73-2.17-2.27-3.93-2.68-6.22,1.18,0,3.23,9.13,5.15,7.72-.47-1-5.55-9.53-4.4-10.09,2.53,2.06,3,6.75,5,8.7a.73.73,0,0,0,.75-.11c-.4-2.42-3.84-4.81-3.54-7.41,1,2.63,3.46,4.62,4,7.84,1.57-.07-.62-3.7-.75-3.87.29,0,.43.11.43.43.88-1-1.53-6.1-1.72-7.08.4,0,2.15,4.22,1.94,4.83,1.32-.92.23-1,.48-2.2.19-.94-.32-1.16.24-2.72.65-1.81,1.79-1.91,2.5-3.45,1,2.57,1.63,4.13,1.05,6.78-.52,2.34-2.36,4-2.56,6.21a1.43,1.43,0,0,0,1.08-.54c.05,3.15,6.75,5.76,9.14,7.28.75.48,3.37,2.6,4.74,2.21,2.67-.76.53-3.24.93-5.52,1.16.74,2,3.49,2.47,4.72.22-.21.18-.39-.11-.53.37.13.39,1,.43,1.5.92.17,1.2-9.73,1.29-10.51.37-3.36-.13-4.13,2.25-4.73-1.1,3.5-.24,7.93.71,11.15.34,1.13,1.06,3.85,1.87,4.87,1.38,1.74.54,0,.75,0,1-1.3.37-3.76.75-5.47a1.55,1.55,0,0,0,2.15.64c.26-1.4,1.35-2.51,1.82-4.51,0,0,.59-2.22.75-3.65a3.17,3.17,0,0,0,1,1.94c-.22-1.84.39-4.76.21-7,2,1.29,3.36,4.92,4.62,6.65,1,1.33,2.93,3.62,3.76,3,2.53-1.88-1.59-6.08-2-7.62,3.46,2.34,5.06,4.85,8.21,5.45.3,0,.85,1.56,1.55,1.1,1.58-1-.77-5-1.11-5.86-.52-1.31-1.85-3.61-2.18-5.49-.14-.81,0-3.62-.14-3.79a5.67,5.67,0,0,1,4.08-3.65c-2.38,2.27-1,9.47-.54,12.24.15.8,2.45,6.84,2.58,5.79,1.43,1,2.28,3.55,4.08,4,.77-1.35-2.77-4.71-3.33-5.8A28.64,28.64,0,0,1,109,85.73c2.33,1.44,2.09,5.19,4.5,6.33.13-.71,2.48,7.23,3.33,8,3,.51-1.85-10.44-2.21-11.23-1.16-2.52-2.77-7.39-5.3-8.95,2.94,1.27,5.28,6.55,6.12,9.12.61,1.88,4.13,14.55,6.76,13.74-.15-2.25-1.22-4.16-1.72-6.33.76,0,.2,1.07,1.07.75-.48,1,.55,4.54,1.61,5.8-2-1.25,3.37,6.38,3.44,6.87-1.27-1.18-4.45-7.45-7-6.76.06-.27-.22.8-.21.75,1.06-.55,4.61,8.55,6.22,9.23,0,.6-.28.67.54.64-.22.35-1.28.49-.22,1.18-2.18.75-4.37-8.61-6.33-8.16,0-.26-.37-2.54-1.5-1.6-.35,3.06,4.34,7.6,4.29,11.59-2.7-2.65-2.14-9.18-5.15-11.38a.69.69,0,0,0-.54.21c0,2.43,3.17,6.71,1.83,8.7-1.06-.79-1.62-3.25-2-4.4-.64,1,2,6.74,3,5.15-.46-1.1.28-2.23-.53-3.43,1.37.75,2.07,6.46,4.08,5.68a38.28,38.28,0,0,0-3-9.66c1.79,1.56,3.74,8.64,5.55,8.28,3.32-.65-4.59-9.79-4.69-11.93.82,1.83,3.88,5,5.37,6.44a1.28,1.28,0,0,1-.33.11c1,.77,1.61,3,2.9,3.12.56-3.28-5.41-6.32-4.72-8.7,2.37,1.54,3.65,5.49,6.23,6.12.2-1.41-3.68-7.81-5.48-6.87.35,1,2.25,1.46,2.15,2.68-1.14-1.13-2.39-3-3.76-3.75,4.26-.59-2-12.17-2.79-14.17,1.37-.76.64.08.3-2-.25-1.55-.4-4.53-1-6.15,3.09,1.22,2.81,7.89,6.24,8.62,4,.85,1.21-5.47-.23-7,.93-.35,1.21,1.06,2.25.54-.12-1.3-1.06-2.46-1.07-3.76.73.63,4.37,5.46,5,4.29-.68-2.29-2.24-4.17-3-6.44.55-.79,1.51,1.48,2.28,1.18-.26.1,4.06-.86,2.12-1.5,2.94,1,0,1.48-.64,1.93.09.32,2,3.53,2.47,3.44,1.19-.23.89-2.62.54-2.57-1.66.26,1.13-1.16.64-1,0,0,1,2.75,2.57,2,0-.66-1.48-2.32-.41-2.69,2.5-.89,3.25,1.25,4.28,3.33.69,1.4,3.72,9,3.43,3.76,2.25,1,5.21,1,7.08,2.68,1.67,1.53,1.39,4.82,2.8,6.44,1.61,1.86,4.21,2.36,5.66,4.67,2.25,3.59,4,10.3,4.42,14.44.27,2.71-.42,5.53-.16,8.29.34,3.56,1.53,6.71,1.74,10.41.32,5.84.52,12.87-2.11,18.65-.13-3.66,1.77-9.46.86-12.35-.2.16-.31.12-.33-.1-1.32.78,0,2.17-1.39,2.25.63-2.24,1.77-5.46,1.29-7.83-1.8.69-2.47,4.2-3.22,5,0-.59,2-7.33.43-6.87.27.52.09.63-.54.32a9.57,9.57,0,0,1-.43,3.22c.47-1.56-2.18.39-1.93.33-.94-1.46,1.23-5.81,1.07-7.41-3,1.33-1.14,8.47-3.43,10.2a.47.47,0,0,1,.21-.76c.31.37-.63-2.09-.75-2.14,0,.61.2,3.38-.64,3.33a21.71,21.71,0,0,1,.53-6.55,3.48,3.48,0,0,1,.75.43,1.5,1.5,0,0,0-.42-.65c0-.05.35-.37.42-.53-1.08-.11-.4,2.66-.42-1.51a2,2,0,0,1,.21,1.18c.77-.63.81-7.25-.32-5.68,0,0-.76-11.64-.75-11.92-1.6,1.92,1.27,8.24-.22,9.13-.38-1.07,0-5.06-1.29-5.59.06.36-.08.47-.43.33,1.28,2.44,1.55,7.52,1.19,10.51-.27-.82-.13-4.92-1.39-4.7-.84.15-.09,2.54.2,3a1.51,1.51,0,0,0-1-.33,40.11,40.11,0,0,1-.32,8.27,1.06,1.06,0,0,0-.54-.21c-.43-1.14.53-4.36-.21-6.23-1.18.84-.2,2.6-.43,3.43a.94.94,0,0,0-1,0c0,.08.48,2.46.43,2.37-1.75,1,.13-2.93.11-2.9a.64.64,0,0,1-.11-.75,1.47,1.47,0,0,1-.64.21c.68-.33.42-1.59-.33-1a1.68,1.68,0,0,0-.1-1.61.71.71,0,0,1-.76.22c.57,2.11.15,3.06-1.18,3.86-.07-.68-1-4.1-.85-5a.92.92,0,0,1,.32.43c.58-.32-.38-.83.21-1.18-1-.76,1.17-6.29-.64-6.23a22.53,22.53,0,0,0-3.94-12.16c-1.55-2.35-4.3-4.61-5.08-7.27,3.73,3.27,6.95,6.21,8.45,10.82.67,2.07.63,6.65,2.87,6.34-.28,0,1.51-2.33,1.42-2.09a15,15,0,0,0-.29-6.59,13.17,13.17,0,0,0,1.4.65c1.38-1.8-1.92-6.81-2.15-8.7a5.24,5.24,0,0,0,1,.11c0-2.53-5.22-4.61-5.4-7.53-.42-6.7,3.58.94,5,1.84.57-1-2.86-6.46-4.08-6.33a15.38,15.38,0,0,1-2.36,3.22c-2.53-2-4.05-7.12-7.84-7.3.81,1.29,7.58,5.12,6.66,7.3-2.09-1.58-4.09-5.14-6.87-4.72-.43.06.27,2,.75,2.14-.88,0-1.77-1.52-2.68-.64C136,90.4,139.3,92,140,94.74c-1-.44-5.51-5.59-6.22-4.83.53,3.17,3.37,5,3.54,8.48-.76-.52-4.5-4.77-3.83-5-.4.15-1.6-1.39-1.54-2-1.65-.27.9,4.56,1.08,5.36a3.8,3.8,0,0,0-2.36-1.18c.82,1.93,3.09,1.38.86,3.12a3.14,3.14,0,0,1,.32,1.28.32.32,0,0,0,.32-.32c1.08,1.76,2.54,5.77,4.4,7.41a13.09,13.09,0,0,1-1.29-1.29c.09,1.8.94,1.78,2,1.82-.8-.27-4.07-7.1-4.29-7.83,1.41,1.13,2.08,3.81,3.76,4.29.44-.71-3.11-8.79-3.55-9.77,1,.24,5.24,5.9,6.05,6.81,1.06,1.19,6.2,9.38,6.73,9,.09,1.14,2.4,7.3,1.18,8.27-.68-1.62-2.19-8.25-4.19-9,.08,1.19,3.21,4.79,2.15,5.69-.86-.61-3.91-7.45-3.76-7.62,3.68,4.33-1.2-2.84-2.36-2.47-.24,1.93,3.58,6.65,4.33,8.15,1.1,2.22,2.51,5,2.43,7.74-1,.43-1.93-4.86-3.11-4.4a1.4,1.4,0,0,1,.64,1.5c-.8-.18-3.59-6.75-3.86-7.62,1.08.54.9,1.65,1.61,2.25.6-1.22-2.41-4.72-3.76-4.4.86,5,6.55,8.38,6.33,14.06-2.51-.8-2.19-9.34-5.15-9.34-1,.58,4.25,13.1,4.62,14.82-.88-1.63-4-9.19-5.8-8.59a29.53,29.53,0,0,1,1.76,5.76c.27,1.36,0,5.18.82,6.26a3.82,3.82,0,0,0-2-1.07c1.07,0-.67-.15.32-.54-.33-1.3-3.27-4.14-3.54-5.9-1.08.55,0,8-.22,9.17-.22,1.49-2.24,5-2,6.18a4.54,4.54,0,0,0,1.29-1.4c.48,3.12,1.29,31.82,4.08,31.66,1.09-2.76.18-9.38-.86-12-.8,1.3,1.39,6.14.22,6.87-1.76-6.07-1.23-11.42-1.61-16.63a39.43,39.43,0,0,1,.1,4.07,28.16,28.16,0,0,1-.53-4.93c1.12.42-.07-.77-.11-2.26.88.9.14,0-.11-.75.21.41.32.38.33-.11.37,3.15,1.17,6.32,1.61,9.66.23,1.8,1,15.33,2.68,15.25.36-9.37-2.53-19.14-3.33-28.66,1.55,3,2.31,9.34,2.25,12.13.58-.45.34,1.39.44,1.93.5,3,.48,7.18,1.39,10.19.52.14.14-1.12.43.22,2.23-2.46-.93-14.36-1.25-17.66-.46-4.72-1.5-9.85-1.22-14.54,1.56-1.2,1.18,7.19,1.4,7.83a1.59,1.59,0,0,0-.54-.64c.24.76.17,2.07.75,2.36-1.34,4.19,1,12,1.07,17.6,1-.72-.57-2.88.54-3,.83.07-1.14,6.25.86,6.22,2-2.37-.19-13.52-.31-16.69-.21-5.4.63-11.62-.66-16.9-.7-.34-.4,1-.64,1.18-.42-2.79-.62-5.71-1.61-8.37,1,1.52,2.52,7.41,4.72,7.08,1.33-1.49-1.11-5.11-1.5-6.65,1.55,2.94,2.06-.57,2.58-1,2.6,2,.59-5.14.32-5.79a1.12,1.12,0,0,1,.32-.33c.13,2.88,2.1,3.61,2.41,5.18.49,2.44-.37,6.2-.8,9.1-.32,2.14.48,7.47-.54,9.23-.31-.31-1.26-1.63-.75-2-.29-1.27-.55,1.16-.43.64-1.27-.61-.75-2.05-.75-3.11a11.45,11.45,0,0,1,.64,2.36c.28,0-.08-5.55-1.5-3.75.43.49-.34,2.83-.18,3.6.46,2.15.51.14,1.9,2.19,1.72,2.56,1.27,6.39,1.46,10.34.17,3.77-1.08,13.33.15,15.53,2.87-7.39-1.68-16.47.21-23.94.52,1.75.16,6.77,1.18,7.73.86-.26-1.08-7.51-1-7.51-.42,1.89,3.94-.85,3.33-.75-.13.81.33,6.22-.33,6.33l.43.21c-.26-.26.24-1.91.26-2.63,0-1.38,0-3,.07-4,.12-2.52,1.65-4,2-5.9.66.33-.59,10-.6,10.39-.21,4.66-1.06,11.63-3.37,15.9.87-1.9.44-4.51,1.51-6.87-.69-.72-.93,4.11-1.29,4.83-.48,0-.11-7.71-1.08-8.37,1.82,3.59.8,11.57.65,15.14.24-.31,1.38-1.57,1.72-1.61-.48-1,1.53-2.46,2.17-4.38,1.13-3.41,1.29-8,1.48-11.62.06-1.23,1-9.28-.65-9.55.08-1.42,1-2.87.54-5.15,1.58.46,1.84.71,1.5-2.47.08.51.34.59.77.24.71.5-1.3,9,0,11.14s2.88,1.79,3.33,5.15c.48,3.58-.53,8.23-.43,11.59-.82-.22-.14-1.17-.64,1.29a22.24,22.24,0,0,1-.11-3.65c.13,0-1.26,9.86-.88,10.16,1,.8,2.16-10,2.23-10.7.42-4.52,0-10,1.55-13.31,1.05-2.19,1.76-4.79,3.43-7.19.82,1.09-1,8.49-1.29,9a9.8,9.8,0,0,0-1.5-1.72c-1,1.23-.14,2.73-1.07,3.76a1.51,1.51,0,0,0,.86-.11c.3,1.85-.62,7.37-.83,9.44-.08.82-.14,2.36-.27,4.24-.14,2.13.82,3.61.34,5.75,3.77-.33,3.57-9.88,4.12-12.26.66-2.85,2.13-5.61,2.63-8.67A61.39,61.39,0,0,0,168.7,133.38ZM29.7,27.12C29.75,26,30.72,27.88,29.7,27.12ZM19.62,4.05c1.95.82,5,10.85,4.72,12.12-.63,1-.41.89.64,1,.35.18.45,3.23.11,3.65C24.29,18.82,20.48,4.28,19.62,4.05Zm-.11-.43C19.46,3.86,18.17,4.75,19.51,3.62ZM25.3,152a2.21,2.21,0,0,1-.21-.75C25.53,151,25.73,152,25.3,152Zm1-5.9c.06.31.4.54-.11.64C26.22,146.51,26,146.06,26.27,146.05Zm-.21,3.54c.12-.75.22-1.5.32-2.25.08.9.77,2.49,1.93,1.82a87.62,87.62,0,0,1,.54,19.11,174.91,174.91,0,0,0-3.65-18.89A1.43,1.43,0,0,0,26.06,149.59ZM35,137.36C34.38,138.24,34.56,135.9,35,137.36Zm-.43-1.72c.21.2.22,1.15,0,1.29A1.61,1.61,0,0,1,34.53,135.64Zm-7.29-5.37a2.54,2.54,0,0,0,.21,1.08C26.46,131.63,27,130.46,27.24,130.27Zm-1.08.43c0,.28.1.67-.32.54C25.79,130.9,26,130.8,26.16,130.7Zm-1.5-2.79c-.15.48.62.59.21,1C24.64,128.67,24.23,128.18,24.66,127.91Zm-7,10.41a.69.69,0,0,1,.11.54C17.46,138.9,17.35,138.34,17.68,138.32Zm-2.46-1.61C15.24,136.79,15.51,137.59,15.22,136.71Zm-.33,1.4C15.24,139.31,15,138.24,14.89,138.11ZM13.28,132a1.11,1.11,0,0,1-.21.86C13.06,132.48,13,132.1,13.28,132ZM9.63,145.3a86.9,86.9,0,0,1,2.9-10c.81.48-1.44,8.94-1.18,9.87.83,0,1.49,13.24,1.4,14.06-.94.14.56.55-.22,1.72C12.06,159.38,8.56,145.35,9.63,145.3Zm-2.9,5.15c0,.33.24.53,0,.86C6.61,151,6.39,150.63,6.73,150.45Zm-2,3.86a1.33,1.33,0,0,1,.1-1.07C4.89,154.19,5.15,153.93,4.7,154.31Zm1.18.65c0-.29-.07-.57-.11-.86C6.41,154,6.45,154.25,5.88,155Zm.1-6.87c-.37.79.19,5.48.22,5.47,0-.46-2.27-4-.54-6.44C5.67,147.64,5.77,147.66,6,148.09ZM20.9,117.18c.24.35-.49,1.12-.75,1C20.62,118,20.52,117.36,20.9,117.18Zm-.53,1.28c-.28,0-.12.46-.54.33C19.78,118.51,20.21,118.18,20.37,118.46Zm-1.18,1C19.68,119.45,19.5,119.67,19.19,119.43ZM17,122.65C17,123.41,16.16,123.21,17,122.65Zm11.81-32c-.39,0-.57-.15-.54-.53C28.63,90.17,28.74,90.42,28.85,90.66ZM109.56,90c.06,0,2.16,3.28,2.26,4.62-2.21-1.17-1.81-3.65-2.69-5.37Zm17.61,20.61c-.31,0-.46-.19-.43-.54C127.13,110,127,110.47,127.17,110.63Zm1.93-1.07c-.38-.49-1.13-1.17-1.08-1.72C128.49,108.23,129.14,109,129.1,109.56ZM140.26,70c-.28.08,1.48-.57.64.21-.75.15-1.49.21-1.61-.75A8.3,8.3,0,0,1,140.26,70ZM133.18,53.1C133.62,53.08,133.7,53.58,133.18,53.1Zm-7.73-8.7c.22-1,8.67,7.41,7.51,8.7-1.76-2.37-6.33-5.5-3.73-.68.79,1.47,5.38,3.39,5.23,4.76-3.84-4.48-14-4.45-13.84-11.92.78.2,4.33,2.31,4.61,1.08-2.77-1.46-5.94-5.48-9.23-5.59-.77.48,1.32,2.64,1.5,3.12-.93-.07-6.25-2.88-6.86-1.93,1.5.42,7.55,4.67,7.62,6.11-3.7-.87-7.27-3.95-10.71-5.76-3.1-1.63-6.25-2.49-3.46,2-5.28-3.34-4,4-1.5,6.33-.84.63-6.89-3.75-8-1,.89.62,2.76,1.51,3.22,2.58-.79-.16-3.62-2.67-4.19-1.4a14.13,14.13,0,0,1,3.22,3.76c-1.42-.54-3-3.1-4.72-2.36a12.22,12.22,0,0,0,1.07,2.25c-3-.65-4.48-4.94-5.47-7.3.83.11,3.33,4,4,2.9-.67-1.34-6.85-8.73-7.3-8.05.65,2.24,4.4,6.41,3.45,9-.58,1.56-4.43-2.22-3.88-4.16.08,1,.76,0,.75-.11-.26-2.16-1-4.21-.75-6.43a5.18,5.18,0,0,1,1.82,1.39,1.64,1.64,0,0,0,.54-.32,14.35,14.35,0,0,0-1.61-2.47c.87-.94,2.34,3.46,4.08,1.72-.75-1-1.91-1.64-2.15-3,1.89-.21,2.64,1.53,4.68,2.67.91.51,4,2.11,4.72,1.56,1.67-1.3-2.74-4-3.49-4.87,3.58,1,6.59.34,10.32.75a79.56,79.56,0,0,1,9.53,2.15c2.09.49,4.78.29,6.77.85S123.15,44.34,125.45,44.4Zm7.73,9.45c-.13,0-1.89-.34-1-1A1.61,1.61,0,0,0,133.18,53.85Zm-3.12,7c1.32-.13,2.5-1.42,3.54-2-.83,3.11-2.1,5.18-5.68,4.93C128.31,63.18,130.25,61.58,130.06,60.83Zm2.69-2.58c-.11.49-1.37.52-.76,1.18-2,.89-3,2.39-5.15,3.86-.17-1.57-1.16-4-.86-5.58,2.58.2,5.16,0,7.73.22Zm-7.2,3,.22,1.18c-.66-.64-1.32-3.42-2.47-2.26,0,0,1.37,5.56,1,6.55-.62-1.87-6.74-9.36-5-4.72-.42-.08-2.42-3.47-2.79-4-1.67-2.3-4.84-5.6-7.94-5.91-2.1-.2-3.35,1.48-1.4,2.9a56.12,56.12,0,0,1-5-6.39c-.48-1-2.13-2.5-.69-3.79,1.7-1.53,3.71,2.41,5.38.73-.15-.17-3.77-3.72-3.22-3.75.15,1.6,3.23,2.07,4.4,3,1.71,1.36,2.92,3.64,4.37,5.14,1.75,1.8,2.68,2.65,3.63,3.77.38.45,2.51,3.69,3.57,3.45,2.51-.59-.38-2.83-.89-3.8-.84-1.6-1.91-3.33-1-4.91,5.17,1.84,10.41,5.3,15.14,8.48-1.66.52-5.63-1-6.83.13C124.23,58.61,126.47,59.45,125.55,61.26Zm-20.71-4.94c.18,2.86,3.87,3.45,3.65,6.22-.82-.2-3.18-2.95-3.68-2.56-.24.18,2.8,5.63,3.14,6.75-3.29-.86-7-8-9.44-7.73,0,1.49,2.45,7.22,3.22,7.62-2.06.52-3.21-5.83-5-3.2-.38.55,1.42,4.19,1.7,4.81-1.81.9-2.85-6.49-4.83-5.26,0,1,2.83,5.73.21,5.91-2.37.16-4.24-11.66-6.44-10-.1.87,1.84,4.79,2.15,5.59A35.08,35.08,0,0,1,91.64,71c-4.23-4.5-5.86-9.67-8.38-15.24.29.08,1.42-.23.86-.75.61-.09.1,1.27,1,1.18,1.27-1.36.59-4-.11-5.37.27,0,1.32,1.08,1.08,1.18-.43.18,3.85-.9,3-1-.17,1.19,2,2.91,2.71,3.21s.38.89,1.47.86c1.67,0,.23-1.52.44-1.82a17.88,17.88,0,0,1,2.09,1.24s1.83,2.28,2.31.69c.2-.68-1.85-2.58-2.15-3.32.89.53,4.42,3.75,5.69,2.14-.74-1.29-5.89-3-5.8-4.4,1.18-.16,5,.61,6.28,1.84S103,55.94,104.84,56.32Zm5.26,11.27c.54,2.53,4.47,5,4.18,7.62-1.87-1.74-3.18-4.69-4.72-7.19,0,.21-.15.21-.32,0,0,.24,1.51,7.09,2,7.19-1-1.37-2.67-6.09-4.19-7.09a21.68,21.68,0,0,1,.22,5.8c-1.17-.32-.85-5.57-1-6.44a1.58,1.58,0,0,1-.75,0c-.52,2.8.44,7.76-2.58,9.66-.52-6.3,0,.51-3-.12-2.18-.46-2.28-4-3.68-4.92a5.62,5.62,0,0,0,.43,3.11c-3.16-2.56-4.58-3.54-5.26-7.94,3,6.6,3.15-1,3.65-1.72,1.17,1.13,1.62,2.83,3.11,3.54,1.44-.18-.25-4.1-.43-4.61,2.06.61,3.72,3.34,5,4.83a1.6,1.6,0,0,1,.43-.43A25.34,25.34,0,0,0,100,61.36c2.12-.49,10.89,12,7.41,2.15.6-.14,2.7,1.47,2.89,2a1.23,1.23,0,0,0-1.07.11C109.54,66.29,109.83,66.94,110.1,67.59ZM117,82.29c-2.66-1.46-4.52-4.16-7.19-5.58a9.14,9.14,0,0,0,1.61-.54C115.46,78.13,116.14,77.28,117,82.29Zm2.47,1.29a1.19,1.19,0,0,0-.43,1.07c-.36-1.62-2.54-2.49-.43-3.11-.47-.89-2-.42-1.83-2.68C118.14,79.33,119.74,82.41,119.44,83.58Zm-7.3-9.66A13.81,13.81,0,0,0,114,76.07C112.59,76.7,111.71,75,112.14,73.92Zm-8.59,6.33c-.43.1-.46,1.68-1.06,2.27s-1.09.6-1.62,1c0,0-3.72,1.6-3.65,1.61-.38-.07-3.15-4.4-3.33-3.75.58-2.08,5.51-2.33,7.73-2A5.7,5.7,0,0,1,103.55,80.25Zm-10.2-5c.82.39,1.83-.61.86-1.18.14.2.1.34-.1.43a1.69,1.69,0,0,1,.21-1.08c0-.13,2.15,2.48,1.72,2.26,1.78.9.18.2,1.82-.43-.33,1.69,2.21,2.22,2.26,3.33-3.44-.86-2.71.84-5.41-1.75A9,9,0,0,1,93.35,75.21Zm-3-2.26c-.66-.15-2.92-.37-2.79-.42-2.2.94,0,1.8-1.5,3,.49-1.06-2-1.33-2.26-2-.64-1.6-.35-4.77-.43-6.59a54.37,54.37,0,0,0-.07-6.08c-.23-1.45-1.54-4.28-1.22-6,2.09,1.39,3.57,8.67,4.84,10.67.69,1.09,6.42,7.22,6.33,8.55-2.84-.33.57,2.09,0,2.47A29.64,29.64,0,0,1,90.35,73Zm-2.58,4.94c-.87-.47-1.15-2.89-.21-3.54A12.37,12.37,0,0,1,87.77,77.89Zm-2.68.75c-.26-.4-1.46-3.13-.75-3.65C85.79,75.35,86.86,77.89,85.09,78.64ZM78,79.29c-.39,2.18-.52,5.24-1.72,7.19-.38-2.09-.86-4.17-1.4-6.23-1.44-.22-1.49,2.88-2,3.76-.33-2.23.92-9.47,2.58-11.27,1.62,1-.21,7,1.39,8.69,1.21-1.9.66-4.21,1.51-6.22a4.17,4.17,0,0,1,.43,2.25C78.81,76.77,77.23,78.26,78,79.29ZM73,85.51a10.15,10.15,0,0,1,1.4-3.11c.58.6,1.44,4.09,1.45,4.84C75.85,92.17,72.46,88.36,73,85.51Zm.86,12.56s-.14-1.81-.21-2.25a3.08,3.08,0,0,0,.75.53q-.21,1.13-.54.33Zm-2.15-7.19c.93-1.21.38-2.74.75-4,.14.2.21.13.22-.22-.53,2.51.42,4.56-.65,7.62C72,93.3,71.76,91.56,71.67,90.88Zm-1-1.39c-.17-1.71-1.19-4.6-1-6.3.22-2.06.5-1.57,1.53-3.51s1-6.25,2.27-7.48C73.32,77.75,72.49,84.83,70.71,89.49Zm-.33-11.28C69,78.4,71.13,75.55,72,75,71.81,76.23,70.38,78,70.38,78.21Zm3.76-8.69a6.56,6.56,0,0,1,.86-1C75.06,68.91,74.62,70,74.14,69.52Zm.22,2.9c.13-.92-.08-1.62.43-2A3.15,3.15,0,0,1,74.36,72.42Zm.1-4.72c-.18.36-.71,3.33-1.28,3.21-.65-1.61-.42-4.43,1.5-5.15A1.59,1.59,0,0,1,74.46,67.7ZM73.18,93.78C72.87,95.08,73,93.75,73.18,93.78Zm2.57-29.84c0,.19,0,.23-.43.75C75.3,64.79,75.86,63.92,75.75,63.94Zm1.18-.43c1.17,2.86,2.42,6.38,0,10.84-1.49-2.93.18-6.71-1.39-8.59A2.07,2.07,0,0,0,76.93,63.51Zm3.76-19.43c.17.81-1.46,6.36-1.93,6.76C78.75,49,79.05,45.45,80.69,44.08Zm.21,5.15.76-.43a10.83,10.83,0,0,1-2.26,4.73c-.17-2,1.49-3.88,1-5.8a.34.34,0,0,0,.32-.21A1.86,1.86,0,0,0,80.9,49.23Zm2.47,4.41c0,.88.19,1.16.22,1.6-2.26.18-1.42-5.2-1-5.9C82.63,50,83.32,52.46,83.37,53.64Zm-1-14.5c-.64,0-.42-2.12-.22-2.25,2.63,2.48,1.08,2.09,1.06,4.48,0,1.16.94,3.06.44,4.11C83.32,43.32,82.52,41.88,82.41,39.14Zm-2.15-7.29a3.18,3.18,0,0,1,1.07,1.82C80.87,33.67,80,32.17,80.26,31.85Zm-4.4-4.73c-1,0-1.27-.36-1-1C75.08,26.22,76.33,26.6,75.86,27.12Zm-2-4.83c-.26.17-7-4.47-7.62-5.36,1.72.23,2.73-.19,4.18.42,1.23.52,1.83,1.87,3.12,2.47a.3.3,0,0,1,0-.43c.31,1.08,3.43,2.77,4.26,3A39,39,0,0,1,88,27.87C82.82,27.46,78.37,24.17,73.82,22.29ZM67.92,20c.51,1.07,6.57,2.89,6.11,5.15C73.19,24.76,67.32,21.41,67.92,20Zm-.54-.54c-.26-.06-.55-.09-.54-.43C67.25,19,67.37,19.19,67.38,19.5Zm-1-.43c-.29-.07-3.63-1.33-3.86-2C65.09,15.26,66.1,18.63,66.41,19.07Zm-3.86-3.65a1.25,1.25,0,0,1,1,0c-.18,0-1.41,2.16-2.47.54C65.5,12.6,61.43,15.12,62.55,15.42Zm5.79,1a9.26,9.26,0,0,0-2.78.21c-.08-.14-.15-.28-.22-.43C66.19,16.11,68.29,14.55,68.34,16.39Zm4.94.11c-.47,0,1.14-.08.33.32A6.55,6.55,0,0,0,71.35,16C71.69,14.56,73.23,16.48,73.28,16.5Zm0,.64c.18-.64-.11.51-.1.54,1-.67,1.38.68,1.39.75,1.43.31,3,2.42,4.08,2,.44,2.64,15,7.38,17.71,7.94a.51.51,0,0,1-.11.54c-9.21-2.28-19-5.76-26.08-12.56a1,1,0,0,0,.64-.43A8.78,8.78,0,0,0,73.28,17.14Zm5,2.25c-.08.19,16.49,6.64,18.15,6.93,2.61.47,4.54-.8,6.75-.81,1.45,0,4.27,1.14,5.92,1.65,3.41,1.05,10.95,3.33,12.76,6.62-4-1.4-10.9-7-15.57-4.73.79,1.14,2.29.61,3.11,1.61-.78-.25-6-.72-5.68-.42.51-1,.26.79.1.42-.1-.1,1.12.31.54.76-1.63-2-6.32-.7-7.51-2.9,1.42-.26,1.95.32,3.22-.22-2.87-1.29-8.13-1.92-12-3.59-3.16-1.37-12.93-4.4-14.35-8C75.38,17.29,77.29,19.09,78.33,19.39Zm21.57,5.8c-1.62-.39-20.79-6.65-19.75-7.94,3.63,1,7.4,3.19,11.08,4.52C93.65,22.66,98.74,23.32,99.9,25.19Zm-6.22-.43c-.55-.43-3.24-.38-3.33-1.39.21.66,9.92,2.41,9.44,3C99.17,25.33,94.07,25.06,93.68,24.76ZM89.17,23a1.19,1.19,0,0,1-1-.43C88.67,22.62,89,22.72,89.17,23Zm32.41,7.84a1.51,1.51,0,0,1,1.51.75c-1.83-.5-6.33-1.17-7.52-2.9C116.34,28.72,122.15,29.87,121.58,30.88ZM121.05,34c-.33,0-.85-.29-.54-.53C120.57,33.75,121.06,33.62,121.05,34Zm-2.47-1.29C119.87,32.87,118.42,33.28,118.58,32.7Zm-.43,0C118.71,32.34,118.75,32.79,118.15,32.7Zm-.75-.42c-.78-.18-4.2-1.13-4.51-1.62C114.09,30.39,116.81,31.27,117.4,32.28Zm-4.73-.65c-.37-.11-1.54-.11-1.39-.64C111.76,31.24,112.62,31.26,112.67,31.63ZM111.17,30c.37-.09.42.16.75.11C111.94,30.71,111.24,30.29,111.17,30ZM111,31.09c-.62-.05-1.06,0-1.4-.53A2.68,2.68,0,0,1,111,31.09Zm-17.5-.53c.54,0,.89.21,1.4.1a1.78,1.78,0,0,0,.21.54c-1.84-.26-4.2-1.57-5.79-1.29a4.54,4.54,0,0,1,.32-1.07C91.31,28.55,92.54,30.31,93.46,30.56ZM91,31c-.08-.24-.66,0-.53-.43C90.66,30.61,91.4,30.68,91,31ZM84.23,28.3c-.6-.24-4.9-1.79-4.83-2.36,1.07.35,8.94,2.09,9.23,3C87.43,29.39,85.35,28.75,84.23,28.3Zm3.86-.21c-.1-.59.22-.59,1,0Zm-8.8-2.15c-.3.09-1.52-.31-1.28-.75C78.3,25.49,79.08,25.33,79.29,25.94Zm-1.71,0c3.31,1.16,8.16,2.39,11.37,4-1.72,2.8-12.18-2.28-13-5A5.09,5.09,0,0,1,77.58,25.94Zm.75,2.15C78.57,28.06,78.84,28.85,78.33,28.09Zm2.57,1.29c.37,1.12,5.7,1.16,7,1.41,1.6.32,7,1.78,8.28,3.52-.35-.31-3-1.6-2.79-.21.9-.85,3.62,1.46,4.74,1.2,1.79-.4-6.14-3.78-6.88-4-.09-.94,11.9,3.81,12.45,3.33.09-1.75-8.81-4.46-11.16-5.37.79-1.37,18.13,3.79,18.14,4.61.4-.11,6.19,2.39,7,3.44a1.87,1.87,0,0,0-1,1.39c-.87-1.12-3.12-2.18-4.51-1.5.75,1.37,2.77,1.22,3.75,2.36-3-1.57-12.74-3.46-15-2.14,0,.14-11.07-1.65-11.06-1.72,2,1.74,5.31,3.51,6.12,5.15-1,2.22-13.79-7.18-14.81-9.44a81.57,81.57,0,0,0,11,2.57c.29-.9,1.24.27,1-.64C91,33.82,79.58,31.54,78.65,29A5.6,5.6,0,0,0,80.9,29.38ZM96,31.31C96.19,32.38,96.39,31.25,96,31.31Zm-10.31,7a1.3,1.3,0,0,1-1-.76C85.18,37.47,85.9,37.72,85.73,38.29Zm-1.5-.76c-.37.1-.58-.08-.64-.53C84,37,84.21,37.17,84.23,37.53Zm-2.57-3.86c.63.73,1.23,1.48,1.82,2.25C83.3,35.77,80.9,33.54,81.66,33.67Zm1.07,31.45c-.67,1.63-.9,4.82-1.5,7.19-.13-1.8.23-6.78-1.4-8-.9-.7-1,1.66-1.72,1.83a12.17,12.17,0,0,0,.81-2.31c.34-.53.93,0,1.12-1.56a7.27,7.27,0,0,0,.54,1.83c1.32.07-.07-5.57.43-6.34C80.64,58.53,83,65,82.73,65.12ZM78.65,60c.42.29.53,0,.32-.86A3.86,3.86,0,0,1,78.76,63,29.75,29.75,0,0,0,78.65,60Zm-.11-2.47c.34.42.27.71-.21.86,0-1.4-1-3.9.53-4.94C78.82,54.78,78.71,56.14,78.54,57.5Zm-.21,1.82c-.11-.11-.22-.76,0-.86C78.18,58.84,78.63,59.15,78.33,59.32Zm2.79-4.51c-.07,0-.65,2.19-1.18,2.69-.15-1.33-.16-3.44,1.18-4.3A6.21,6.21,0,0,1,81.12,54.81ZM82.51,61c-.21-.28-.42-1.25-.1-1.5C82.45,60,82.71,60.73,82.51,61Zm-.43-1.93c-.09-.48-.42-.7-.21-1.18C82,58.22,82.73,58.69,82.08,59.11Zm-3.32-7.94a1.64,1.64,0,0,1-1,1.71C77.8,52.66,77.68,50.24,78.76,51.17Zm-1.29,7.29c.3.61.34,4.08-.43,4.41C77,61.61,77.88,57.65,77.47,58.46ZM77,76.07c.23.77,2.56-1.75-.11,1.61A3.5,3.5,0,0,1,77,76.07Zm1.5-4.19c.08-2.17.85-4.26.86-6.44a.43.43,0,0,0,.54.22c.49,3.12-.58,10,.43,11.7,2.72-.4,1.18-7.19,2.68-8.81.3,5.11.19,6.3-2.79,10.42C79.36,76.68,79.33,74.2,78.54,71.88Zm23.19,6.76a1.51,1.51,0,0,1-1.08-.32S102.59,78.4,101.73,78.64Zm1.18-.64c0-.22-.16-.69.21-.75C103.1,77.55,103.21,78,102.91,78ZM98.4,52.67a1.16,1.16,0,0,1,.86.43C98.77,53.25,98.21,52.49,98.4,52.67ZM111,44.62c.9.81.85.64,1.5.75-.29.88.73.41,1,1-1.69-.29-6-2.22-7-3.76C107.91,42.93,109.75,44.68,111,44.62Zm5.47,6c1.14,2.18,2.29,3,3,5.47-3.71-3.2-6.22-7.17-10-10.52C112.27,45.8,115.21,48.28,116.43,50.63Zm2.47-5.26c.52.26,3.55,3,2.15,3.76-1.27-2.17-4.82-3.43-6.44-5.48A12.84,12.84,0,0,1,118.9,45.37Zm-1.4-3.11c.93.12,4.74,2.65,4.45,2.77C120.18,45.81,118.41,43.26,117.5,42.26Zm1.08-4.51c0,.37,2.62.64,2.36,2C120.66,39.66,116.7,37.9,118.58,37.75Zm3.33,3.11c-.25,1,.22.36-.86.54.13-.54-1.26-1-1.4-1.18a.65.65,0,0,0,.11-.22A4,4,0,0,0,121.91,40.86Zm6.54-2.79c.05,2.24,4.65,3.6,4.62,6.66-.46-1.2-2.34-1.72-3.13-2.49-1.76-1.74-3.25-4.05-5-6C126.41,36.07,127.08,38.29,128.45,38.07Zm-4.29-1a7.9,7.9,0,0,1,3.11,2.9c-2.5-.34-22.32-8.1-22.32-9.66,2.34.44,2.88.82,5.36,1.4a.29.29,0,0,1-.1-.32c2.18,1.78,6.57,1.62,8.48,2.57C119.7,34.5,122.43,36.59,124.16,37.1Zm2.47-3.22c-1.1,1.16-2.54-.78-2.9-.85-.19.08-.79.3-.75.53.08,0,1.53.29.86.75-.43-.31-1.64-.66-1.18-1.5a2.17,2.17,0,0,1-1.83-1.18C122.92,31.9,124.59,33.43,126.63,33.88Zm-19-9.87c1.76-.89-1.17-.39,2.47.75,1.63-2.1,14.51,3.55,15.67,6.44-1.65-.29-5.1-4.3-4.72-1.82-2.17-1.52-18.67-2.95-18.68-4.3C102.6,23.82,106.36,23.54,107.63,24ZM93.35,19.5c-.54-1.92-8.5-3.07-10.09-4.4.77-1,21.31,7.79,21.15,8.37C103,22.13,95.46,19.49,93.35,19.5Zm1.08,1c0-.28,0-.46.32-.43C94.78,20.32,94.71,20.5,94.43,20.47ZM104.3,22a2.35,2.35,0,0,1,1.93.75c-1.68-.36-4.26-2-5.68-1.61-1-4.42-15.75-3.15-17-7.4C87.35,14.84,104,19.41,104.3,22ZM85.52,11.24c1.75,2.42,7.69,3,10.13,4.19.7.34,8,3.75,8.12,4.72-7.78-.79-15.91-7.08-23-10.09C82.48,10,83.91,10.91,85.52,11.24Zm-16.42-6C69.47,5.57,68.31,6.21,69.1,5.23Zm-32-.54a.52.52,0,0,1-.21.54C36.73,5.07,36.79,4.67,37.11,4.69ZM34.43,13c.41-2,1.42-7.25,2.57-7.51C36.42,7.4,35.81,11.33,34.43,13Zm.86,8.16c2.89-.31,3.33,1.28,6.28.73,3.13-.58,4.62-3.11,6.06-5.67.46,1.42-1.18,3.53-2.9,4.62,1.25.13,4.87-5.07,5.05-4.08-.43-.05-2.13,2.29-2,2.58.34.33,1.73-.62,1.93-.86a1.3,1.3,0,0,1-.43.86c1.17.3,1.28-1,1.61-1.51a.73.73,0,0,0,1,.11c-.25,0-.36-.12-.33-.32a2.85,2.85,0,0,1,.65.11c-.22.14-.18.28.11.43-.3.43-1.67.4-1.51,1.07,2.39-2.08,5.85-3,8.48-5.15C58,14,55.7,15.77,54.5,16.6c-.1-1-.32.11-.43-.21.88-.5,8.62-6.1,8.26-7-3.39.9-7.14,6-10.73,7.73,2.49-4.15,5.69-5,8.8-8.26-1.51-.13-8.07,6-9.87,6.65.71-1.11,5.87-5.81,6.87-6,0,.73,2.94-2.3,2.89-2.68-2.53,2.55-7.2,7.58-11.16,8.26,2.15-1.82-1.84.9-1.61,1C47.8,13.73,59,7.13,58.15,5.76c-1.33,3.35-9,7.32-12.24,8.91-.07-.16,12.85-9.89,11.59-10.52-1,.83-3.47,3.69-5,5-1.86,1.6-5.81,3.27-7.08,4.72.9-2.21.9-2.7,2.72-4.32,1.44-1.29,3.44-2.32,4.25-4.27-1.44,0-6.07,5.7-7.83,6.77a2.07,2.07,0,0,0,.75-.11c1-.17-2.89,5.9-3.31,6.38a29.39,29.39,0,0,0-2.81,2.85.38.38,0,0,0-.21-.43c.6-.69,5.8-7.33,4.72-8.91-.25,1-2.71,4.27-2.68,4.4.26-.25.44-.25.53,0-.49.24-1.15,2.54-1.93,2.26a2.54,2.54,0,0,0,1-1.72,2.22,2.22,0,0,1-.43.53c.42-2.29,2.42-4.78,3.65-6.11.06.52-1.36-.74-1.4-.75a.87.87,0,0,1-.54,1.18,2.36,2.36,0,0,1,.75,0c-1.78,2.19-2.3,6.39-5,7.83C37.8,19,43.2,9.26,41.4,9.31c-.18,1.45-1.41,6.76-2.68,7.08-.09-.25-.24-.28-.43-.11.25.08.32.22.22.43-.86.7-1.81,2.83-3.22,3.44.82-2.91,3.58-6.25,5.09-9.23.73-1.44,2.14-4.32,3.71-4.19a4.6,4.6,0,0,0,.32-1c-.14.29-2.7,2-3,2.36a17.46,17.46,0,0,0-1.18,2.15C39.34,12.2,37.7,15.6,36,16.39c0,.7.74,0-1,1.61.64-4.65,5-8.62,5-13.1a5.73,5.73,0,0,0-1,2.15,2.12,2.12,0,0,0,.11-.21c-.33,1.06-1.79,4.72-2.9,4.93.12.05-1,7.23-2.58,7.73a113.43,113.43,0,0,1,3.3-13.1c.17-.62.56-3.07.74-3.28.91-1,.94.75,2.3.5,0,0-1.4-1.42-1.4-1.4.92.27,4.57,1.08,4.72,1.83,4.73.36,11.14-1.56,16.42-1a31.78,31.78,0,0,1,5.91,1.12c.35.13,3,1.75,2.57,1.72-.17-.08-.72-.91-1.39-.32,3.59,2,7.58.8,11.27,3.76C75,8.78,69.69,5.49,67.06,6.41c0-1.24-1.07-.64-1.5-.54-.72-1.18-4-1.63-5.48-2,2,.7,4.9,2.67,7.41,2.47,1.34,1.38,5.36,1.76,7.86,2.63C79.41,10.35,84.41,11.21,88,14c-1.81.9-4.74-2.94-7.09-1.61.39,1.19,2.5.23,2.69,1.61-2.43-.2-5.06-1.74-7.48-2.39s-7.54-2.93-10-2.23c.27.81,7.87,2.41,8.87,2.68,1.88.49,7.05.93,8.2,3.12-3.68,0-9-4-12.45-3.11,2.92,2,8.52,1.37,10.84,3.54a.41.41,0,0,0-.43,0,3.53,3.53,0,0,0,2.46.39c1.38-1,16,7.06,16.64,7.44a1.23,1.23,0,0,1,1.51.11C99.51,27.32,78,12.76,76.18,16.39c1.92.11,4.25,3.06,5.37,2.25-.74,1.2,6.6,3.3,6.44,4C85.27,22,82.25,20.28,79.77,19a34.42,34.42,0,0,1-4.64-2.4c-2-1.51-2.59-.16-1.85-2.38-1,.85-4.49,2.8-5.26.75.28,0,2.85-1.77,1.72-1.82-.31.73-2.11,1.94-2.9,1.61a1,1,0,0,0,.43-.64c-1.08-.17-.4,1-.43,1.07s-2.48,1-2.25.32A9.48,9.48,0,0,1,66,14.46l-.21.53h.64c-1-.91,1.06-1.34,1.08-2.25-1,.4-3.2,3.46-4.73,1.93,1.52-1.34,4-3.05,3.33-4.51-1.58,2.47-6.35,7.72-9.12,7.41.94-1,2.57-1.34,3.32-2.68a2.23,2.23,0,0,1-.75-.22c.14,1.92-4.95,3.15-6.44,3.52,1.71,0,5.07-1.25,7.73-1.26v.75c-.32,0-5.26,1.9-5.26,1.93,2.68-1.17,6.31-2.4,9.3-.44,2.5,1.65,4.59,3.87,7,5.81.76.6,5.42,3.71,5.69,4.93-.26,0-1.29-.79-1.4-.32,2.15,2.44,3.12,1.93,4.36,5.71.49,1.49.92,9.77,2.51,9.64-.93.28-.39,3.26-1.5,3.76a20.07,20.07,0,0,0-.43-5.8,10.87,10.87,0,0,0-2.42,3.54c-.4,1.37-1.84,4.2-2,5.15-.5,2.71,2,11.72-2.32,12.78-.65-.47.18-1.92-.86-2.15.4,2.64-.63,3.41-2.58,2.26,1.36,3.92,1.85,7.25-.14,10.78-.45.79-2.87,4.71-3.61,5.1,0-.17-1.73,0-2.26-.43A16.63,16.63,0,0,0,66,78.64c-1.56-1.72-2-4.33-2.79-6.76a9,9,0,0,1,2.26,5.26c1.76-.49-1.8-6.47-2.58-6.33a.66.66,0,0,1-.11,1c-.32,0-4.33-5.8-4.95-6.5-1.35-1.53-2.92-4.06-5.24-3.26,0-3.2.1-4.46-2.27-6.95-1.73-1.81-5.53-4.79-5.25-7.87.68.76,2.7,5,3,4.4.24,0-.51-1.3-.32-1.6.83,2.09-.4-2.66-.06-1.71-.62-1.74-2-3-3.06-4.41-.84-1.09,1.2-3.12-2-1.08a21.08,21.08,0,0,0,1-3.65,1.21,1.21,0,0,0-1.18.11c.08-.49,1.46-2.38.54-2.9-1.57,0-1.21,3.92-1.93,5.16-.2-.86-1.49-.37-2.37-1.29.61-.37,1.21-.73,1.83-1.08-.76-.39.36-2.46.86-3.54l.86.54c1.45-.66-6.53-13.66-7.09-13.42Zm7.4-1.39c.77-.58,2.28-3.82,3.54-3,1.72,1.1-4.38,4.64-5.25,4.62A5.37,5.37,0,0,0,42.69,19.72Zm-.32-.65,1.5-1.61a6.6,6.6,0,0,1-2.25,2.47A.82.82,0,0,1,42.37,19.07Zm3-3.65c.81-.76.35.36.21-.64a1.61,1.61,0,0,0,1.83-.32c-.62,2.07-.28,1-2.37,2.14A3.4,3.4,0,0,0,45.38,15.42Zm-1,1c.38-.15.22-.85.64-1C45.13,16,44.61,16.48,44.41,16.39Zm5.69-.11a2.52,2.52,0,0,1,1.82-.64c-.51,1.17-1.37,2.67-2.68,2.68A7.63,7.63,0,0,0,50.1,16.28ZM49.88,16c-.32,0-.64.06-1,.11C49,15.58,50.31,14.57,49.88,16Zm2.26,1.39,1.29-.64C53.37,17,52.56,18,52.14,17.35ZM37.43,15.21c0-.28,0-.55.33-.54C38,14.89,37.75,15.22,37.43,15.21Zm19.43,2.25C56.35,18.43,56.6,17.48,56.86,17.46Zm9.45,69.13c0-1.41.67-2.68,1.93-4.4C68.49,83.18,66.86,85.9,66.31,86.59Zm.21,2.14c.1-.58-.22-.83.32-1.18A1,1,0,0,1,66.52,88.73Zm-.11,1a.94.94,0,0,1,.22-.75C66.72,89.21,66.79,89.64,66.41,89.7ZM68,80.36c.26,0,.24-.33.43-.43C68.59,80.3,68.21,80.68,68,80.36Zm-4.4-4.19a2.55,2.55,0,0,1-.75-2A2.48,2.48,0,0,1,63.62,76.17Zm-4.29.54c-3.77-1.62-9.13-2.59-12.24-5.37,3.14,1.74,7.72,1.28,10.72,3.54C57.5,74.65,60.74,76.44,59.33,76.71Zm-1.18.43.86.32a.47.47,0,0,0-.54.43A.81.81,0,0,0,58.15,77.14Zm-10.73-4c-1.44.58-3.37-1.65-3.87-1.61,0,0-.45.66-.64.11.61-1.27,9.43,1.74,10.41,3.65C51.9,74.5,48.6,74.55,47.42,73.17Zm1.93,1.72c-.31,0-.9.11-1-.43C48.87,74.66,49.27,74.41,49.35,74.89Zm-6.77.1c.35,0-.77.49-.85,0C42.43,74.74,42,74.91,42.58,75Zm-1-1.61c.53.37,4.14-.4,5.58,1.83C46.75,75.07,41.56,73.64,41.62,73.38Zm.11-7.83A1,1,0,0,1,41,64.9C41.33,65,42.52,65.42,41.73,65.55Zm1.82-1.72c-.38.42-.67.39-.86-.11.16.06.27,0,.32-.21C42.94,63.92,43.12,64,43.55,63.83Zm3,10.2c0-.6,1.59.09,1.28.53Zm-1.94-9.55c.21.06,1.13-.2,1.19.42a6.9,6.9,0,0,0-2.15-.42C43.8,63.5,44.76,64.52,44.62,64.48Zm3.76,5.25a5.41,5.41,0,0,0-1-.32C47.54,68.89,48.51,69.11,48.38,69.73ZM48.06,71c-.33,0-.55-.09-.64-.32C47.74,70.7,48.12,70.64,48.06,71Zm-1-5.36a7.66,7.66,0,0,0-1.18-.76c.46,0,4,.66,4,1.19A7.16,7.16,0,0,0,47.09,65.66Zm.11,5a7.6,7.6,0,0,1-1.5-.54A1.31,1.31,0,0,1,47.2,70.7ZM44,69.2a4.19,4.19,0,0,0,1.72.64C45.45,70.47,44.13,69.9,44,69.2Zm7.41,6.33c.44-.28,3,.84,3.11,1.18a27.16,27.16,0,0,1-4.94-1.61A1.65,1.65,0,0,1,51.39,75.53Zm2.79.11C55.3,75.39,54.31,75.9,54.18,75.64Zm2.57,1.29c-.92-.05-1.79.06-2.14-.43C55.34,76.62,56.35,76.47,56.75,76.93Zm-7.94-7.2c.26.07.55.1.54.43C49.09,70.1,48.8,70.07,48.81,69.73Zm7.51,2.37c0,.22.4.1.43.32C56.36,72.75,56.09,72.21,56.32,72.1Zm3,1.61a3.15,3.15,0,0,1-1.93-1C58.86,72.41,59.5,72.73,59.33,73.71Zm-.22-1c-2.75-1.66-10.23-1.91-11.69-5.26C48.26,67.5,59.31,72.36,59.11,72.74Zm-9-6.55c0-.68,1.1-.08.75.22C50.52,66.42,50.54,66.07,50.1,66.19Zm1-.21c.48,0,.73.21.76.64C51.57,66,50.85,67.22,51.06,66Zm6.77,1c-.78-.65-4.52-3.62-5.16-3.65C53.86,61.51,58,65.55,57.83,66.94Zm-1.18,0C55.55,67.2,56.58,66.46,56.65,66.94Zm-.76,2.26c-.15.16-.55.1-.53-.22C55.62,69,55.88,69,55.89,69.2Zm-2.14-1.72c-.27-.16-.67-.19-.75-.54C53.39,66.91,53.9,67.32,53.75,67.48Zm-1-.43c-.25-.07-.5-.14-.53-.43C52.49,66.39,52.84,66.65,52.78,67.05Zm4.4,1.61.65-.75a3.29,3.29,0,0,1,1.07,1.4ZM46.34,51.06c-.64-.31-1.25-1.28-.64-1.93C45.56,50.12,46.27,50.27,46.34,51.06Zm-3.43.86a1,1,0,0,0-.86.43c-.43-.57,1.86-4.19,1.72-5.05a.43.43,0,0,1-.33.32c-.16-1.44,1.39.87,1.4,1.13C44.88,49.78,43.38,50.85,42.91,51.92Zm-.86-11.38c-.13-.12,0-.49.11-.64C42.3,40,42.34,40.54,42.05,40.54Zm.43-1.18c0,.26,0,.52-.22.54C42,39.68,42.26,39.44,42.48,39.36Zm0,7.19a9.17,9.17,0,0,1-1,1.83,44.86,44.86,0,0,0-.43-5.05C42.93,43.58,42.26,45.34,42.48,46.55ZM41.4,50.31c-.31-.08,1.49-1.44,1.51-1.4-.86.46-.27,2-1.4,2.58C41.47,51.21,41.63,50.56,41.4,50.31ZM44.3,46c.54.3.69.69.43,1.18C44.73,47.11,43.7,45.81,44.3,46ZM44,44.62c1.93.16,2.88,3.5,4.19,5.15-1.24,0-.59-.09-.54-.32C46.8,49.53,44.39,45.26,44,44.62Zm-3.76,1.61c.73-.2,1.05.6.54,1.39a.42.42,0,0,0-.43,0A1.21,1.21,0,0,0,40.22,46.23ZM39.9,59.11C39.78,60,40,59.11,39.9,59.11ZM40,47.3c0,.19.29.63,0,.75C39.65,47.83,39.69,47.54,40,47.3Zm-.75-6c.91.56,1.17,2.34,1.18,3.44C40.35,43.36,39,42.63,39.26,41.29ZM39,48.7c-.1-.47-.91-2.62-.75-3.87.05.17,1.82,5.11,1,5.26A1.93,1.93,0,0,0,39,48.7ZM39,62c.17.27.12.93-.21.64C39,62.62,38.7,62.08,39,62Zm-1.5-22.54c0-.57,3.71-5.77,3-6.12-.75,0-1.45,2-1.64,2.3a15.51,15.51,0,0,1-3,3.71c-.46-1.63,1.39-2.77,2.09-4.19a7.59,7.59,0,0,0,.7-4.93c1.3-.28,3.21,3.93,2.77,5.05.11-.28-1.31,1-1.59,1.59-.46,1-1,2.42-1.39,3.12A1.59,1.59,0,0,0,37.54,39.47ZM37.86,65c.18-.18-.07-.78.32-.75C38.47,64.58,38.06,64.85,37.86,65Zm-.1-22.32A.86.86,0,0,1,37,41.51a.26.26,0,0,0,.43,0A1.3,1.3,0,0,1,37.76,42.69Zm-2.47-5.91c.6-.59.64-.47,1.28-.64a2.31,2.31,0,0,1-1,1.5ZM34.86,36c-1.44.49.66-2.6,1.16-3.62.22-.46,1-4.51,2.16-3.14S36.14,36.34,34.86,36Zm1.28-11.16a6.81,6.81,0,0,1,1,2.57C36.72,27.47,35.91,25.06,36.14,24.87ZM36.36,36a.51.51,0,0,1,.43-.43C37,35.79,36.78,36.14,36.36,36Zm-1,3.65C35.08,41.47,35.27,39.72,35.39,39.68Zm5.48,8c-.23.27.44.73-.11,1C40.73,48.28,40.49,47.74,40.87,47.73ZM35.29,23.15C35.37,23.28,35.67,23.72,35.29,23.15Zm.1.65c.2.05,1.32.31.43,1.07Zm-1.28,9.76c2-.88.68-5.61,2.36-6.22.21,2.95-1.43,5.73-3.12,8.15C32.07,34,34.67,35.14,34.11,33.56ZM33.68,36a2.33,2.33,0,0,1-.43.75S33.2,35.21,33.68,36ZM32.82,35c0,.27-.2.37-.32.53C32.25,35.25,32.47,34.92,32.82,35Zm-.32.64c.5.17,0,1.36.32,1.72C32.06,37.13,32.67,36.1,32.5,35.6Zm-.86,1.61c0,.32.24.33.21.65C31.47,37.92,31.23,37.3,31.64,37.21ZM30.78,36c.17.17,0,.5-.11.65C30.71,36.35,30.39,36.13,30.78,36Zm-.32,1.18c-.73.29.23.6-.43.43C30,37.63,30.45,36.32,30.46,37.21Zm-4.94-7.83c.76,1.13.9,4.36.75,5.69A49,49,0,0,1,25.52,29.38Zm-2.26-1.83c1,.18,1.93,5.08,1.61,6a17.3,17.3,0,0,1-2.25-7.3Zm-1.82,1.29c.21.12.5.71.22,1C21.42,29.72,21.3,29,21.44,28.84Zm-.32,1.82c-.41,0-.71.08-1.18-2C21.08,28.65,20.24,30.64,21.12,30.66Zm-2,2.15C19.28,31.62,19.52,32.56,19.08,32.81ZM18,26.48c-.08,0,1.3,2.24,1,2.36C18,26.77,17.81,27.11,18,26.48Zm-3.12,5.9a1.17,1.17,0,0,1,.54,1.08Q14.52,33.1,14.89,32.38Zm0-6.12,1.5,1.29-.75.11A4.62,4.62,0,0,1,14.89,26.26Zm-7-6.76A2.72,2.72,0,0,1,7.06,18c.49.51,7.79,5.9,7.08,6.44-1.34-.14-4.77-3.76-4.72-4C8.94,20.12,8.43,19.8,7.92,19.5ZM8,18.11c.63.05,1.32.61,1.18,1.07C8.9,18.61,8.18,18.57,8,18.11Zm1.4.75c1.41.51,2.55,1,2.79,2.36A6,6,0,0,1,9.42,18.86Zm2.25,1c-.24-1.67-1.51-2.7-2.14-4.18,1.78.2,4,4.95,4.83,6.33A16.37,16.37,0,0,0,11.67,19.82Zm3.11,4.73c0,.29.24.42.44,1-.25-.22-.5-.44-.76-.64C14.24,25.28,14.35,25.17,14.78,24.55Zm.33-1.61C14.36,21.46,15.44,22.84,15.11,22.94ZM17,28.09c-.25-.14-.53-.26-.54-.65C16.89,27.44,17.19,27.88,17,28.09Zm-.43-2c.37-.05.61,0,.54.43C16.89,26.41,16.65,26.33,16.61,26.05Zm-.32-.21a2,2,0,0,1-.86-1.51C15.59,24.71,16.89,25.35,16.29,25.84Zm.1,7a11.54,11.54,0,0,1,1.08.75C17.23,33.67,15.76,33.57,16.39,32.81Zm-.1-9.55a3.73,3.73,0,0,1,1.5,2.25A18.38,18.38,0,0,1,15,22.08c-.08-.35-.6-1.73-.11-1.93C14.84,21.59,16.46,21.75,16.29,23.26Zm-1.61-6.87a35.16,35.16,0,0,0,.54,3.54c-.86-.39-2.75-3.45-2.58-4.4C12.94,16,14.13,15.85,14.68,16.39Zm-4.4-7.73c.13.33.41-.07.53-.11C11.32,9.15,9.8,9.28,10.28,8.66Zm.21.54c1-3.11,3.53,5.71,3.76,5.9a7.15,7.15,0,0,0-.75.11C13.71,14.2,7.37,12.08,10.49,9.2Zm1.4,6.22C11.54,13.92,12,15.39,11.89,15.42ZM9.2,11.56,10.06,13C9.37,13,8.51,12,9.2,11.56Zm-.32,1.61c.39.66,5.66,6.52,4.94,6.87C13.3,19.17,8.7,13.2,8.88,13.17ZM9.53,17c-.79.42.22.85,1,1.72a3,3,0,0,1-2.25-3C8.66,16.18,9.09,16.61,9.53,17ZM7.7,14.24A1.5,1.5,0,0,1,6.63,13,4.91,4.91,0,0,1,7.7,14.24ZM3.19,12.63c2.65.33,4.51,2.43,5.37,5C7.07,17.07,1.9,14.73,3.19,12.63Zm3.12,4.83a6.29,6.29,0,0,0-1-1C6.52,16.64,7.44,17.29,6.31,17.46Zm-4,.54a3.55,3.55,0,0,0,0-1.83A31.55,31.55,0,0,1,6,20.9C4.63,20.05,3.93,18.5,2.33,18Zm6.55,6c-2-2-3.75-7.52-6.22-8C2.75,12.39,10.19,22.05,8.88,24Zm-.21-2.25c1,.43,2.33,3.15,3.43,4.5C11.2,26.88,8.88,22.39,8.67,21.76Zm3.75,4.72C12.4,26.25,12.08,27,12.42,26.48Zm1.51,3.11c-1.06-.95-2.5-1.63-3.12-3C11.46,26.66,14,28.88,13.93,29.59Zm.43-1.5c-.07-.54-4-5.34-3.65-5.48C10.61,23.94,16.28,26.29,14.36,28.09ZM1.15,25.73c.27.52,7.28,6,7.09,6.12C7.71,31.64-.16,26.68,1.15,25.73Zm.11,1.61C2.35,29.41,7.68,30.87,7.59,33,7,32.74.64,28.85.94,28.63Zm1.61,4.4C2.3,30.49.65,30.63.72,29c2.22.18,4.91,4.2,5.59,4.83C5,34.16,4,32,2.87,31.74ZM7.7,34.42c-.34.1-1.23-.34-1.29-.75,1,.32,2.69.56,2.9,1.93A1.58,1.58,0,0,1,7.7,34.42ZM12.32,78c.24.25.74.25.75.75C12.82,78.94,12.12,78.24,12.32,78Zm3.86,3.54c-.11-.14-.29-.21-.32-.43C16.19,81,16.47,81.42,16.18,81.54Zm1.18,3.11a11.65,11.65,0,0,1-.64-1.39S17.41,85,17.36,84.65Zm.65.11c.34.59.84,1,1.18,1.61C18.82,86.34,17.61,85.2,18,84.76Zm1.28,1c-.34-1.08.12-.72,1.4,1.07C20.32,86.84,19.53,85.51,19.29,85.73ZM21,88.63c-.28,0-.35-.15-.32-.43C21,88.16,21,88.34,21,88.63Zm.86,1.5c.33.21.88.19.86.75C22.24,90.83,22.09,90.44,21.87,90.13Zm1.72,1.72a1.27,1.27,0,0,1-.75-.86C23,91,24.37,91.5,23.59,91.85Zm-.86-3.55c.56,0,.75.33,1,.65C23.35,89.13,22.8,88.73,22.73,88.3Zm3.33,2.79c-.33-.74-2.11-1-2-1.93C24.38,89.7,26.29,90.11,26.06,91.09Zm.21.11C27.24,91.66,26.42,91.6,26.27,91.2Zm.64-.54c-1.12-2.25-7.07-4.13-6.87-6.76C20.07,83.93,28.32,90.57,26.91,90.66ZM31.42,75c0,.13-.43-.66,0-.75A.45.45,0,0,1,31.42,75Zm.22-1.82c-.26-.17-1.29,2.9-1.29,2.9-1.46-.35-2.85-.92-4.29-1.29a7.37,7.37,0,0,0,4.07,1.82c0,.07-3.05,2.54-3.22,2.58-.72-1.35-2.38-3.44-3.86-3.65a44.64,44.64,0,0,0,3.65,4,4,4,0,0,1-.43,2.15c-.09-.57-4.44-5.2-5-4.08,0,2.2,7.89,3.39,5.15,7.3-.18-1.26-5.68-5.52-6.44-4.94,2.6.73,5.11,5,7,5.48a2.07,2.07,0,0,0-.1,1.39c-2-1-4.76-4-6.44-5.47a1.12,1.12,0,0,0-.33.32c.52.21,8.15,6.56,6.66,7-.45-2.29-18.1-11.89-16.53-14.28,1.65,1.36,6.06,6.7,8.26,7,.2-1.35-7.26-10.16-9.23-8.8.54.14,1,.91,1.4,1.28-1,1.25-5.23-10.28-5.8-11.37.94-.14,8.8,5.6,8.81,5.58-1.41-2.42-5.44-3.75-7.42-5.48-1.42-1.25-1.52-1.34-2.31-3.48-.28-.78-1.3-5.41-.47-5.53,2.58,1.72,4.27,4.21,6.65,6.33-.06-.36,0-.5.32-.43C7,52.6,1.11,54.81,4.27,46.44c.56.73,3.57,4,4.29,4.19-1.67-3.05-4-3.42-3.22-6.66C5.46,45.12,9,47.7,8.88,48.38,8,45.09,5.09,44.88,6.55,41a7.84,7.84,0,0,1,2.37-2.86,7.42,7.42,0,0,1,3.59-1.63,32.21,32.21,0,0,0,7.86-3.61c1.56,1.74,1.93-.1,3.86.75A21,21,0,0,1,27,36a12.69,12.69,0,0,0-.11-2c2.13,1,.66,4.16,3.5,5.21,1.18.44,2.24-.71,3.34-.3-.39-.14.76,2,.85,2.15,1.5,1.72,2.24,3,2.87,6.47a30.56,30.56,0,0,1-.25,5.69c0,2.69,1,5.29.86,8-.53-2.17-2-13.59-2.15-13.53-.49-.38-.78-3.2-.29-1.66-.33-3.58-3.31-3-4.81-4.31C32.65,45,33.37,50.35,34,53.89a29.39,29.39,0,0,1,.5,9.43c-.38,3-3.89,7.15-3.68,9.53.25-.1,2.32-2.71,2.36-2.15C32.9,71.13,32.23,73.06,31.64,73.17ZM11.78,74.89c-1,.1,1.28-.54,1.5,1.07C12.66,75.91,12.05,74.86,11.78,74.89Zm2.58,2a.58.58,0,0,1,.64.53A.79.79,0,0,1,14.36,76.93Zm.86.43c0,.35.56.21.42.75C15.33,78.05,14.76,77.52,15.22,77.36Zm19.64-6.87c-.13,0-1.72,1-1.66,1.25-.4-1.69,1.76-3.75,3-4.26C36.19,68.41,34.54,69.53,34.86,70.49ZM34,52.13A30,30,0,0,1,33,46c2.36.68,2.75,10.87,2.47,12.35A47.32,47.32,0,0,0,34,52.13Zm-.43-7-.86-2C33.15,43.23,33.85,45,33.57,45.15Zm2.57,16.53.33-3.54C36.53,58.48,37.77,62.81,36.14,61.68ZM36,48c.24.71,1.05,2.68.32,3C36.27,50.06,36.09,49.28,36,48Zm-2.69,27.9s-1-.08-1,0a2.94,2.94,0,0,1,.43-2.14S33.37,75.78,33.35,75.85Zm1.18,5.58a7.15,7.15,0,0,1-1-.85,13.65,13.65,0,0,1,1.93,1.18C35.18,81.64,34.86,81.53,34.53,81.43ZM35,73.09c-1.54,1.44,1.22-3,1.61-3.45a26.13,26.13,0,0,0,2.83-4.27c-1.12,2.42,1.54-6.18.54-1.1.6-1.3,1.4-3.86,1.2-4.33-.17-.72,0-4.75-.28-4.91.67,0,3.43-3,4.08-3.76.61,1.46,4.57,3.89,4.61,4.83-1.28.38-4.7-2.68-5.62-1.66a16.2,16.2,0,0,0,5.73,2.41,2.48,2.48,0,0,0-.86,0c.5.24,2.7.3,2.47,1.4-1.86-1.49-5.92-2.16-7.73-2.36-.09-.24.51-.64,0-.75-.19,0-.42.54-.46.66.17,0,3.86,1,2.93,1.27a.56.56,0,0,0,.32-.54c.57,1.39,2.89.94,3.86,1.81,1.89,1.7.81.7,1.62,3.45a49.93,49.93,0,0,0-9.24-2.72c-.13,1.77-.21.64.65,1.86-.7-.4-1-.27-1,.4,2.9,1.39,8-.12,10.15,3C51.12,65,42.8,62.78,42,62A28.09,28.09,0,0,1,35,73.09ZM50.31,62.33c-.13-.28-.51,0-.53-.22C49.9,61.76,50.61,62.05,50.31,62.33Zm-5.47-1a3,3,0,0,1-1.5-.53C43.7,60.82,44.47,60.7,44.84,61.36Zm-4.29,13c.42.08.83.17,1,.54A1.75,1.75,0,0,1,40.55,74.35Zm1.82,7c-.11-.25-.72,0-.64-.43C42.13,80.78,42.55,81.21,42.37,81.33Zm-.64-2.26c.14-.14.56,0,.64.22C42.18,79.48,42,79.16,41.73,79.07Zm-1-2.9c.63-.07,3.41.56,4.08,1.51C43.56,77.09,42,77,40.76,76.17Zm3.54,8.7a4.68,4.68,0,0,1-.75-.43C44.5,84.26,44.75,84.4,44.3,84.87Zm-1.72-3.65a17.68,17.68,0,0,1,4.94,1.93A20.18,20.18,0,0,1,42.58,81.22Zm5.69,2.25s-.74.06-.64-.43C47.47,83,49.05,83.36,48.27,83.47Zm-.85,12.24c0-.12,1.7-3.34,2.46-4.51C50.14,92.24,49.48,95.25,47.42,95.71Zm2.25-7.62a15.36,15.36,0,0,1,1.39,3.11A1.47,1.47,0,0,0,48.7,91,15.44,15.44,0,0,1,49.67,88.09Zm-.54,0c.39-2.15,0-1.9,1.72-2A3.14,3.14,0,0,1,49.13,88.09Zm3.12,6.33c-.72-.27-3.14,4.23-3.65,3.22.54.07,1.87-4.4,2.36-5A8.24,8.24,0,0,0,52.25,94.42Zm.42-7.4c.08-.41-.49-.58.11-.65C52.72,86.56,52.91,87,52.67,87Zm1.08-.86C53.76,85,53.82,86.16,53.75,86.16Zm.43.86v-.43A.23.23,0,1,1,54.18,87Zm.53-1.51c.91.11,1.24,1.57,1.29,2.58A7.28,7.28,0,0,1,54.71,85.51Zm.22-1.61a2.8,2.8,0,0,0,1,0C55.78,84.47,54.68,84.19,54.93,83.9Zm2.68,7.84c-.3-.06-.6-.68-.43-.86C57.46,91,57.45,91.47,57.61,91.74Zm-.32-1.18a4.51,4.51,0,0,1-1.4-2.36.42.42,0,0,0,.43,0A13.79,13.79,0,0,0,57.29,90.56ZM56,84.12l1.08-.22a5.58,5.58,0,0,0,.42,2.36A12.12,12.12,0,0,0,56,84.12Zm1.61-1.93c-4.42.11-10.38-3.2-14.38-2.58C43.24,79.44,57.66,82,57.61,82.19Zm-10.3-4.62c.45.1.76-.06,1,.43C48,77.86,47.29,78.05,47.31,77.57Zm4.61,1.93c.4.14-3.24-1.22-3.32-1.61,1.74.44,8.47,1.26,9.66,2.79A26.28,26.28,0,0,1,51.92,79.5Zm4.08,0c0-.32.32-.54.54-.32C56.58,79.51,56.19,79.4,56,79.5Zm2.15,6.12c-.06-.61-.1-1.21-.11-1.82l.65-.22A4,4,0,0,1,58.15,85.62Zm.21-4.83C58.85,80.51,59.42,80.79,58.36,80.79Zm1.4-1.29c-4.65-1.66-11-1-14.92-4.29-.05.28,4.69.76,4.72.75.52,1.36,9.18,2.91,10.09,2.79C59.54,79.28,60.06,78.9,59.76,79.5Zm-.22-1.93C60.65,77.4,59.26,78.58,59.54,77.57Zm1.08,3.33c.32.17-1.13-.21-.65-.32C59.93,80.51,60.88,79.85,60.62,80.9ZM62,73.6c.42,1.28-4.41-4.43-2.79-4.08C59.29,70.1,62.56,73,62,73.6Zm.43-1c.26.22.21.5-.21.54C62.21,72.9,62.21,72.65,62.44,72.63Zm.43,5.69c.05.12.9,2.07.22,2.15C63.06,80.42,62.17,78.2,62.87,78.32Zm-.11,3.87c2.24-2.28,3.76.31,4.83-.22a11.29,11.29,0,0,1-1.82,2.25,3.15,3.15,0,0,0-.86-2.14,7.58,7.58,0,0,0-1.29,2.47ZM65,85.84c1,1.19.61,2.4-1,3.43A6.65,6.65,0,0,1,65,85.84Zm-.65-.11c.2-.52,0-1.43.43-1.72A1.14,1.14,0,0,1,64.37,85.73Zm-1.93,9.12a34.6,34.6,0,0,1,2.36,2.9C64,97.19,61.92,96.28,62.44,94.85Zm3.33-4.29c-1.31.65.12,6.16-.21,7.08-.46-1-2.15-4.41-3.87-3.75,2.74-4.54.41.9,2.47-1.62.46-.55.64-2,1.4-2.89A3,3,0,0,0,65.77,90.56Zm.64.64a21.72,21.72,0,0,1-.32,3.87A8.45,8.45,0,0,1,66.41,91.2Zm9.45,11.59c-2.17,1.75-7.35-2.89-9.66-4.4,1.63-.45,1-1.93,1.23-3.23.67-4.31.26-8.28,1.77-12.55-.15,4.2.31,11.37,2.47,14.92,1,.11,1-2.14,1.29-2.57,0,1-1.59,4.76.43,4.72a4.68,4.68,0,0,0,.43-.75,1.09,1.09,0,0,0,.75.11C74,99.89,75.84,101.79,75.86,102.79Zm-.64-6.22C75.13,96.35,74.18,97.3,75.22,96.57Zm4.07,1.07c-1.1.76.23,3.82-1.07,4.4-.24-1.1-2-3.49-1.82-4.61.07-.65,2.49-3.34,2.89-4.08C79.52,94.76,79,96.24,79.29,97.64Zm-.64-6.33c-.32.44-1.25,3.64-2,3.43.92-1.4.67-2.93,1.82-4.5Zm8.48,7.94c-2.93-2-1.36,2.79-2,4.72A63.22,63.22,0,0,1,82.68,92.4c-.28-3-.5-3.35-1.88-4.2a7.27,7.27,0,0,1,1-3.22c3.36,3.09,3.6,4.46,4.62,8.85C86.55,94.59,88,98.67,87.13,99.25ZM86.59,92c.34.41,1.33,2.58.86,3.22C87.15,94.1,86.86,93,86.59,92ZM87.45,96C88.1,95.85,87.31,95.41,87.45,96Zm.32.86C87.68,95.88,88.25,96.6,87.77,96.89ZM91,89.27c-.1-1.12-.34-2-1.18-2.36-1.66,3.6,2,6.49-.86,10.52-.27-3.52-1.85-6.68-2.89-10,1.06-.07,1.65.58,2.25-.21a14.62,14.62,0,0,1,.78-1.46C90.68,85.26,93.49,85.91,91,89.27Zm1.72-4.4c-.49-2.35-4.55.92-4.68,1-1.25.52-.06,1-1.75.68-1.08-.19-1-2.7-2.26-2.19a1.61,1.61,0,0,1-.22,1.4c-4-3.89-3.09.69-4.51,4,.36-2.11-2.91,3.88-2.82,3.73a8.16,8.16,0,0,0-.93,2.49c-.61,0-1.11-.27-1.93-.21.06-1.76,0-3.5.1-5.26,4.81,2.66,5.11-10.34,5.05-12.88,1.79,2.35.44,3.49,2.49,2,1-.74,1.12-3,2.44-3.81-.15,2,1.38,5.79,2.9,2.46,1.37.77.94,1.87,2.15,2.58.92.54,1.65.67,2.4,1.07,2.67,1.42.4-2.84,1.54.84C92.68,82.72,93.32,84.84,92.71,84.87ZM91.1,81.33c0-.13-2.3-1.12-2.15-2.58,0,.14,0-3.91.11-4.29,0,.05,6.45,4,6,4.94C94.06,79.24,91.65,80.6,91.1,81.33Zm8.37,10.52c0,.25.5,1.58,1,1.39a14.12,14.12,0,0,1-.32,2.68c-4.18-2.42-8-10-6.44-14.27a27,27,0,0,0,1.71,2.47C96.4,86.29,96.85,90.15,99.47,91.85ZM98,88.41c.3,0,.46.19.43.54C98.05,89,98.14,88.56,98,88.41Zm6.87-3.22c-.41.5,3.65,9.29,2.68,9.12,0-.71-5.47-6.59-5.69-6.44.42,1.8,1.73,3,2.47,4.62-1.81.8-6-5.66-6.76-6.65,1.8-1.41,4.23-1.62,6-3A5.75,5.75,0,0,0,104.84,85.19ZM104,81C104.23,80.36,104.34,80.35,104,81Zm.54-2.79a.88.88,0,0,1-.32.76c-1.44-.63,1.9-3.87,1.71-4.73,1.89.72,3.09.35,2.47-2.36.78.28,1.72,3.13,2.36,3.87C108.2,75.56,106.62,77.17,104.52,78.21ZM110,81.86c1.49,5.6,7.35,9.51,7.09,16.53-1.64-4.15-8.78-13-7.73-16.53-.11-.2-1-.6-.32-1.07A2.67,2.67,0,0,0,110,81.86Zm11,17.82c-.16,0,.22,1.21.21,1.5-1.93-2.39-2.57-5.69-3.75-8.48C118.47,93.2,120.62,99.79,120.94,99.68Zm.11-6.44c.32-.13,2.75,7.13,2.47,8.59C122,96.76,118.45,93,116.19,89.6c-.51-.79-7-12.06-7-12,.36-.43,5.09,3.1,5.44,3.33C118.27,83.4,119.12,89.12,121.05,93.24Zm5.58-11.48a2.7,2.7,0,0,0-2.47-.86c0,3.42,5.94,4.07,2.36,7.94-.48-.39-10.4-13.38-10.84-12.67,0,0,1.08.72,1,0l-1.72-3.54c2,.69,5.89,2.19,7.52,3C123.08,76,128.33,80.73,126.63,81.76Zm-3.22-8.38c0-.38-.65.44-1.29.54a5.78,5.78,0,0,1-.21-2.15C123,71.63,124,73.23,123.41,73.38Zm6.76,8.38a29.45,29.45,0,0,1-3-3.87c.89.32.73-1.17,1.39-.53A12.65,12.65,0,0,1,130.17,81.76Zm-2-6.87C129.77,75,127.07,75.91,128.13,74.89Zm1.93,1.61C129.69,76.48,129.46,75.56,130.06,76.5Zm.11-1.72c.2,0,1.29,1.34.75,1.39a13.16,13.16,0,0,0-3.43-2.46,4.74,4.74,0,0,0,0,3.32c-2.41-.39-3.77.08-4.94-2.47,2.13,1.13-.31-8.07-1.18-.42-5,.36-8.74-4.85-11.06-8.38.86.39,2.16,1.54,2,2.15.4.39,2,1.42,2.15,1.07-1.87-.44-5-5.31-5.37-6.16a27,27,0,0,0-2.76-5.06c-.47-.64-3.1-3-2.39-4,2.67,1.17,5,5,8,6.09,4.4,1.59-4.49-4.61-4.81-6.84,4.27,0,6.84,3.86,8,6.12,1.49,2.77,4.45,10,6.66,10.73,1.76-1.46-1.21-6.14-1.94-7.94,1.44.61,2.27,2.85,2.84,4.14s.65,5.31,1.67,6.06c1.44-.56.54-5.64,1.83-6.87s4.57-.48,5.79-1.4c1.47-1.1,1.63-5.24,2.79-5.55,1-.25,2.29,2.53,4.3,1.9.08.08-.38-1.27-.43-1.07,2.37-.81,4.09,6.78,4.72,7.83-1.9-.28-6.71-1.1-6.23.65-.28.08-1-.53-1.5-.54a2.27,2.27,0,0,0-.11,1.18,25.57,25.57,0,0,0-3.46,1.88c-.66.45-2.65.81-3,1.77S130.46,73.6,130.17,74.78Zm7.51-3.87a3.87,3.87,0,0,1-1.28.43,13.36,13.36,0,0,0-.33-1.39c.14.2.25.13.33-.22A6.58,6.58,0,0,1,137.68,70.91Zm-2.36.65c-.89-.28-1-.56-.32-.86A2.42,2.42,0,0,1,135.32,71.56Zm-3.54,6.23c-.23-.74,1.16-1.21,0-1.4a.57.57,0,0,1,0-.54,17.27,17.27,0,0,1-.54-1.82C131.31,74.34,134.79,77.55,131.78,77.79Zm1.4-3.23a3.59,3.59,0,0,1-1.29-3C135.42,71.41,133.42,71.86,133.18,74.56Zm1.93,4.94c0-.22-.07,1.15-.11,1.18C133,78.21,135.19,79.5,135.11,79.5Zm.32-1.39c-.22-.39-.44-.82,0-1.08C135.49,77.46,136,77.9,135.43,78.11Zm1-.65-2.69-3.22a2.07,2.07,0,0,1,1-.64C135,74.25,137.14,76.58,136.4,77.46Zm-1-4.72c-.08-.26,2.22,2.91,1.4,3.22A20,20,0,0,1,135.43,72.74Zm1.5,3.54C137.75,76.5,137,76.47,136.93,76.28Zm1.83.75a6.66,6.66,0,0,1-1.4-2.47.51.51,0,0,1,.65-.21c.27,1.3.53,2,1.28,2A.58.58,0,0,1,138.76,77Zm-1.83-5.15c2.37,0,2.52,1.92,3.11,4.29A11.54,11.54,0,0,1,136.93,71.88Zm3,0c.05,0,.56-.67.07-.84,2,.11,2.05,2.76,2.8,4.08A15.64,15.64,0,0,1,140,71.86Zm3.51,8.61c-1.38-2.91-3.55-3.8-3.22-7.41C140.69,74.72,143.66,76.45,143.48,80.47Zm1.18,1.72c0,.21.7,1.52.22,1.61A1.33,1.33,0,0,1,144.66,82.19Zm.22,1.71c.35,0,.31.34.53.43C145.09,84.49,144.86,84.35,144.88,83.9ZM133.71,98.39c.64,1.14,2.27,2.82,2.36,4.19-1.06-1.13-1.78-2.66-3-3.65C133.48,99,133.7,98.8,133.71,98.39Zm10.52-6.87c-.36-.06-.49-.36-.54-.75C144.15,90.81,144.4,91.16,144.23,91.52Zm-5.9,7.3c-.25-2.42-1.6-4.44-2.47-6.65,1.24.35,4.28,4.55,5.47,3.33-1-2.58-3.33-4.29-4.5-6.77.13,0,2.31,1.82,2.25,1-.6.45,2.9,3.81,3.43,3.65,0-.87-5.1-6.31-4.83-6.55,2.25,1.82,6.5,4.39,8.83,7,2.62,2.88,2.78,7.56,5.13,10.43.33-.64.46,2.12,1,3.22-.6,0-4.79-9.13-5.9-7.94,1,3.24,3.12,5.16,3.86,8.9a18.33,18.33,0,0,1,.43,5c0,.06-.29.79-.32,1-1.16-3-2-6.14-3.44-9-.32-.64-3.9-5.88-4.07-4.21,1.15,2,2.15,2.56,3.22,4.4a27.75,27.75,0,0,1,3.33,10.2C148.56,113.05,144.09,97,138.33,98.82ZM135,135.21a18.7,18.7,0,0,1,.32,2.15c-.54,0-.61-.34-.1.1a.83.83,0,0,0-.54.43A3.89,3.89,0,0,1,135,135.21Zm.11,8C135,142.24,135.34,143.24,135.11,143.26Zm.64,1c-.79-2,0-5.07-.86-6.33h.54C135.13,140,136.15,142.12,135.75,144.22Zm3.54,8.81C138.94,151.93,139.35,153,139.29,153Zm0-1.4a1.56,1.56,0,0,1-.32-.75C139.39,150.75,139.36,151.63,139.29,151.63Zm-.42-1.18-.44-1.61C138.94,148.9,139.41,150.05,138.87,150.45Zm-.54-8c-.65,1.3.53,2.79.54,2.79-.7.36,0,2.86,0,3.54-1.79-2-2.94-10.44-2.58-13.09-1,0-.88-8.25-1-9.23a15.53,15.53,0,0,1,1.45,2.49c.08,1.13-1.31,2.58-.7,3.84.15-.44.35-2.27,1-2.25C137.49,133.63,136.45,139.7,138.33,142.4ZM139,131C138,131.81,139.55,129.94,139,131Zm1.83,17.71v.75C140.46,149.62,140.46,148.6,140.8,148.73ZM141,156c-.17-.72-.79-6-.11-6.44C140.49,151.52,142.38,154.91,141,156Zm-.86-23.93a2,2,0,0,0,.43-1.83c.24,0,.9,10.54,1,11.7-1.07.43.13,7.45-.22,8.8a14.94,14.94,0,0,0-.64-3.11,1.73,1.73,0,0,1-.11.54,7.3,7.3,0,0,1,0-2.34A89.55,89.55,0,0,1,140.15,132.1Zm3.33-14c.05.1,1.05,1.44,1.07,1.61H144A9,9,0,0,1,143.48,118.14Zm1.07,3-.43-1.29C144.35,119.93,145.68,121,144.55,121.15Zm1.08,16.53C146,136.81,145.49,137.71,145.63,137.68Zm2.57-7a17.66,17.66,0,0,0-.1-3.33c.15.57,1.3,3.39.32,3.65C148.45,130.27,147.35,130.59,148.2,130.7Zm-1,3.54c0,.06.07-1.17.1-1.18C147.4,133.38,147.83,133.91,147.24,134.24Zm1.07,3.12a10.55,10.55,0,0,1,.11,2.89c-2.2-1.28.12-5.4-1.08-7.72a1,1,0,0,1,.54.43,3.59,3.59,0,0,1,.11-2.15c.78.37.6,7.71.53,7.73A1.44,1.44,0,0,0,148.31,137.36Zm.54,3.22c.29-2-.55-6.63.64-9.23C150.65,130.89,152.07,140.3,148.85,140.58Zm4-6.87c-.84-.12-1.39,1.53-1.61,2-.32-2.36.32-1.86,1.5-3.12A2.09,2.09,0,0,1,152.82,133.71Zm-3.11,30.59a2.7,2.7,0,0,1-.11-1.29A.84.84,0,0,1,149.71,164.3Zm3-6.77c-1,.14-.09,2.92-1.72,3.33.44-1.11,1.75-4.33,1-5.24-.09-.1.68.3.37-.34a.32.32,0,0,0,.54.11A11.86,11.86,0,0,0,152.71,157.53Zm-.21-2.36c0-.54-.39-2.16.43-2.57C152.92,154,153.48,155.11,152.5,155.17Zm1.5-16.53c.69,3.68-1.34,9-.54,13.74-1.52-.57-.13-4.58,0-5.58C153.37,146.19,153.41,138.81,154,138.64Zm1.18-7.4a10.38,10.38,0,0,1-.22-4.4A21.82,21.82,0,0,1,155.18,131.24Zm2-3C156.94,127.22,157.3,128.21,157.22,128.23Zm.21-1.5a.52.52,0,0,0,.11.86C156.55,127.28,157.47,126.79,157.43,126.73Zm-.53-4.94c0,.34.5,1.44.1,1.83C157.14,122.85,156.48,122.34,156.9,121.79Zm4,13.31c-.17,0,.33-1.84.88.09.24.87-.31,2.89-1.31,3C160.12,137.43,160.38,135.22,160.87,135.1Zm-.65-1.39c-.12.14,0,1-.32.64C160.22,134.35,159.75,133.56,160.22,133.71Zm-2.14,4c-.37,0,.56-.32.53-.32C158.68,137.94,158.05,138.52,158.08,137.68Zm2.57,3.65.11.86-.54.21a1,1,0,0,0-.56-1.23c-.76-.16-.17,1.18-.62,1.44-.31-.24-3.28-4.38-1.93-4.61,1.38.69,2.35,1.35,2.47-1.72a26.45,26.45,0,0,0,1.3,3.24C161.09,140.84,161.17,140.82,160.65,141.33Zm.86-1.51c-.91,0,.28-.71-.32-1.28a.54.54,0,0,0,.64-.33C161.73,138.75,161.62,139.29,161.51,139.82Zm3.12,6.34c-1,1.76.08,4.48-1.08,6.87C162,151.49,163.82,146.43,164.63,146.16Zm-1.51-1.94c.53.08.94,1.7.11,2C163.17,145.59,163.13,144.91,163.12,144.22Zm-.64,1.72C163.3,146.13,162.23,147,162.48,145.94Zm2.36,9.66c.14.29-1.54,8.24-2.68,9-.66-4.76-1.3-13.32.53-17.93.7,1.48-1,7.5,0,8.16.39,0,1.81-1.94,2-1.72C164.31,153.7,164.77,155.7,164.84,155.6Zm-.11-2.79a.39.39,0,0,1,.22-.64C165.09,152.31,165,152.74,164.73,152.81Zm.32-6.22c.14-1.76-.34-1.87-.1-4,.07-.62.69-1.9.86-2.89C166.66,139.9,165.45,145.67,165.05,146.59Z"/><path d="M37.43,4.05C36.78,4.05,37.52,5,37.43,4.05Z" fill-rule="evenodd"/><path d="M45.38,9.31c.56,0-.76,1.45-.76,1.71.9,0,5.29-3.72,5.26-4.61C48.93,7.24,45.88,9.94,45.38,9.31Z" fill-rule="evenodd"/><path d="M18,15.64c-.08.17,1.81,9.19,2.46,9.23-1.4-1.22-2.07-10.76-3.65-13.53l-.43.11A31.27,31.27,0,0,1,18,15.64Z" fill-rule="evenodd"/><path d="M51,22.94C50,24.05,52.29,22.5,51,22.94Z" fill-rule="evenodd"/><path d="M46.45,29.59c.2-.75,1-2.31.11-2.57,0,.24-.35,4.18-1.08,4.07C45.64,31.67,46.23,29.7,46.45,29.59Z" fill-rule="evenodd"/><path d="M63.52,29.16a3.54,3.54,0,0,1,.32,3.22s-3.66.1-4.14-1.3A10,10,0,0,1,60.82,28C62.66,27.05,61.86,28.68,63.52,29.16Zm-1.4.11c-.51-.22-.87.34-.86.75C62.07,29.73,62.34,30.07,62.12,29.27Z" fill-rule="evenodd"/><path d="M55,30.45c-.25-.38-.46-.28-.65.32,1.21,0,.31,1.75.43,1.29.17-.15.65,1.55,1.41,1S55.08,31.27,55,30.45Z" fill-rule="evenodd"/><path d="M75.11,40.11c0-.65-1.11,2.54-1,2.47C74.93,42.67,75,40.46,75.11,40.11Z" fill-rule="evenodd"/><path d="M26.06,40.33a1.08,1.08,0,0,0,.75.64C26.66,40.67,26.34,40.14,26.06,40.33Z" fill-rule="evenodd"/><path d="M24.66,43.76c.34-.37,2,1.12,2.47,1.29-.6-1.44-3.49-2.89-4.83-3.33C22.87,43.19,23.92,42.32,24.66,43.76Z" fill-rule="evenodd"/><path d="M22.51,43.12C22.68,43.39,21.84,43.45,22.51,43.12Z" fill-rule="evenodd"/><path d="M51.06,43.12c-.16,0,1.37,1.59,1.51,2.46a1.16,1.16,0,0,0,.64,0C53.37,44.38,51,43.72,51.06,43.12Z" fill-rule="evenodd"/><path d="M26.06,45.58A2,2,0,0,0,27.67,47a5.53,5.53,0,0,0-2.58-2.15C25.05,45.63,25.75,45.32,26.06,45.58Z" fill-rule="evenodd"/><path d="M28.09,48.59c-1.84-.3-3.33-2.63-5.25-3.44-.05,1,4.35,3.46,5.36,4.19-.92.64-.06,0-.32.86a1.15,1.15,0,0,1,.86-.21C28.8,49.37,27.76,48,28.09,48.59Z" fill-rule="evenodd"/><path d="M24.66,48.8c.95.07,4.29,2.9,3.43,3.22-.88.15-3.95-3.17-5.47-3.43,1.66,1.09,5.47,5.52,7.19,5.8.74-.92-1.31-1.73-1.61-2.37.45-.91.68,1.95,1.08-.64-2.54-1.65-4.8-4.09-7.73-4.62.09.75.88.35,1,1A2.16,2.16,0,0,1,24.66,48.8Z" fill-rule="evenodd"/><path d="M4.91,49.34a1.46,1.46,0,0,0-1-1.07c.33.89,3.5,4.95,4.83,5C8.54,53.12,5.27,48.73,4.91,49.34Z" fill-rule="evenodd"/><path d="M73.5,49.56c-.56.22-.56.65,0,1.28C74.05,50.15,73.52,50.11,73.5,49.56Z" fill-rule="evenodd"/><path d="M32.39,58.36c-1.61-2.55-7.55-8.24-10.63-8.37C22.23,51.17,31.89,58.26,32.39,58.36Z" fill-rule="evenodd"/><path d="M32,59.32c-1.88,0-9.55-8.13-10.09-6.22A28.22,28.22,0,0,1,26.38,56c.81.59,6.19,4.8,6.12,4.83A4.48,4.48,0,0,0,32,59.32Z" fill-rule="evenodd"/><path d="M60.94,52.88c-.2,0,.43.85.43,1.18a2.24,2.24,0,0,0,2.36-1,13.75,13.75,0,0,0,2.9.54.72.72,0,0,0,0-.54C66.15,53.45,61.33,53.3,60.94,52.88Z" fill-rule="evenodd"/><path d="M32.28,64.15c.58.13-.71.53-.75.54.19.66.86.39,1.39.43-.6-2.79-3.39-4.85-5.25-6.44a48.94,48.94,0,0,0-4.73-3.22C23.63,57.65,33,62.09,32.28,64.15Z" fill-rule="evenodd"/><path d="M72.32,58c.41,1.22,1.21,1.94,1.29,3.22a.29.29,0,0,1,.42,0A7.61,7.61,0,0,0,72.32,58Z" fill-rule="evenodd"/><path d="M70,59.43c.27.48,1.84,4.11,2.25,4.4C73.73,62.83,70.54,59.64,70,59.43Z" fill-rule="evenodd"/><path d="M24,59.65c1.62-.09,6.55,6.27,6.44,6.33.26,1.43.33-1.1-1.08-2.62-.62-.67-4.09-3.39-4.08-3C24.65,59.93,24.77,59.25,24,59.65Z" fill-rule="evenodd"/><path d="M12.64,69.41S15,71.2,15.64,71a16.89,16.89,0,0,0-7.83-5.26C9.07,67,11.85,67.77,12.64,69.41Z" fill-rule="evenodd"/><path d="M65.77,66.84c1.57,0,2.94,5.58,4,5.58-.21-2.28-2.71-5.87-4.51-6.55A5.6,5.6,0,0,0,65.77,66.84Z" fill-rule="evenodd"/><path d="M159.9,121a53.48,53.48,0,0,0,1.83-7.73c.93.64,1,5.44,1.39,6.34a8.79,8.79,0,0,0-.32,2.68c1.49-.22,1-8.91-.11-9.45a10.85,10.85,0,0,1,.11,3c-.24-1.15-.49-2.29-.75-3.44a.53.53,0,0,1-.54-.1c-1.54,2-.79,5.13-1.39,7.19-1,0,.69-9.75-1-9.13-.06,1.22-.1,2.44-.11,3.65-1.35-.27.44-13,.65-13.74-1.39.34-1.43,1.24-1.93,2.8.83.17,1.1,4.9,1.07,4.93-1.59,2.67-.2,5.62.26,7.37C159.27,116.14,158.74,120.2,159.9,121Z" fill-rule="evenodd"/><path d="M132.75,105.37c.72.12,1.54,1.61,2.25,3.22-2.41-1.09-4-6.93-7.73-5.8-.12.56,4.89,6.64,5.48,6.55.24-1.1-3.2-4.5-3.76-5.15,1.13-1.34,6.15,6.57,6.65,6.44,2.43-.61-4-7.6-4.18-8.16a12.38,12.38,0,0,1,1.5.86c.26-1.2-3.51-2.82-4.08-2.58C128,102.57,133,103.58,132.75,105.37Z" fill-rule="evenodd"/><path d="M133.28,103.22C134.13,103.19,133.2,104.31,133.28,103.22Z" fill-rule="evenodd"/><path d="M100.33,108.91c-.56-1.24-1.5-1.39-1.72-2.9,2.57-1,3.82,2.12,5.48,3.33-.65-.75-3-3.93-1.93-5l1.71,1a11.86,11.86,0,0,1-1.82-2.68c.61-.49,6.76,7.06,6.65,8.37-.54.55-5.59-5-5.58-5a64,64,0,0,0,3.54,6.44c-.11.28-5.81-4.67-6.44-5.8a.53.53,0,0,1-.21.11c.95,2.09,3.43,3.5,3,6.12C102.62,111.63,101,109,100.33,108.91Zm4.08-3.33c-.66,0,0,.89.32,1A2,2,0,0,0,104.41,105.58Zm1,1.29C105.08,106.87,105.3,108.17,105.38,106.87Zm-1,2.69c-.55-.12-.59,0-.11.45C105.07,110.66,104.38,109.65,104.41,109.56Z" fill-rule="evenodd"/><path d="M60.4,112c1.19,0,2.07-3.64,3.65-4.18.44,3.25-1.18,6.69-1.07,10a.38.38,0,0,1,.43.11c.45-1.1,2.21-5.57,1.5-6.66.89.14.3.32,1,.75,0,0-.15-1.81-.22-1.5.09-.4,1-1.25,1.4-1.61.48,1.15-.76,4.2-.75,4.19a27.31,27.31,0,0,0-.11,13c.77-.61.24-.74.75-1.72-.45-.27,1.14-10.21,1.18-10.2.3.57-.71.8.32-.11,1.34.85,1.21,9.94,3.65,10.42.34-2.24-.55-4.29.11-5.69-.29-.22-.43-.15-.43.21-.17-1.45-1-3.15-.54-5.15a1.2,1.2,0,0,0,.65,0c-.11,2.62.56,11.82,3.22,13.2,1.64-3.28-2.52-8.5-2.36-11.7,1.82.08,3.15,8.07,4.61,9.77,1.77-2-1.27-9-1.93-11.48a3.88,3.88,0,0,1,.75-.11c1.23,2.09,1.32,4.63,2.47,6.76.35.06-2-8.61-1.93-9.77.26,0,1.55,1.46,1.61,1.61-.41-.18-.62-.08-.65.32a.62.62,0,0,0-.43-.64c.73,3,3.21,7.71,2.26,10.73a1.2,1.2,0,0,0-.65,0,9.5,9.5,0,0,0-1.39-2.68c.3,1,1.54,5,.41,6-.86.78-2-2.5-2.56-2.79.29,1.49,1.38,5.93-1.29,4.19-.48-.32-.54-3.37-1.39-3.87,0,6.76-2.75-4.25-3.54-4.51a1,1,0,0,1-.22,1.4c.26-1.11-1-2.34.54-1.4a1,1,0,0,0-1.08-1,13.08,13.08,0,0,0,.86,7.3c.88-.67.07-3-.21-3.76a.49.49,0,0,1,.54-.11s.6,5.3.32,6c-2.16,0-1.32-3.73-2-5.15-1.08,0,.25,4.81-1.18,5-2.66.44-1.61-10-1.83-11.49,0,.4-.11,4.13-.53,4.19a11.28,11.28,0,0,0-.54-2.15c0,.53-.55,2.06-1.72,1.5-.46-1,1.23-10.41,1.18-10.41-.32,1.11-2.66,5.6-3.75,5.58a11.86,11.86,0,0,0,.1-2.79c-2.27,2.72-1.92,5.23-3.65.65a.5.5,0,0,0,.54.1c-2.28.1,2.62-9.6,3-8.8-1.73.45-3.31,9.5-1.94,10.95.4-.85,2.58-7.91,3.65-7.73A20.3,20.3,0,0,1,60.4,112Zm5.26,0c-.31.09-.48.73,0,.76C65.47,112.6,65.76,112.42,65.66,112Zm-.21,1.83c-.2.12-.52.13-.43.54C65.3,114.34,65.33,114.05,65.45,113.85ZM65,115.14c.15-.13.14-.43.43-.43C65.29,114.23,64.86,114.66,65,115.14Zm6.76,1.71C72,118,71.82,116.87,71.78,116.85Zm-3.22,0c-.36.2-.09.4-.22.86C68.93,117.7,68.45,117.29,68.56,116.85Zm.32.65C69,118.65,69.72,117.4,68.88,117.5Z" fill-rule="evenodd"/><path d="M113.53,108c.55,0-1-4,.54-4.3a15.49,15.49,0,0,1,1.61,4.51c-3.62-5.1.43,3.71-3.55.74-1-.77-.72-3.51-2.14-4.5.93,0,2.65,3.51,2.68,4.51A1.6,1.6,0,0,0,113.53,108Zm.86-2.79c-.69-.27-.17,1.31-.11,1A.62.62,0,0,0,114.39,105.16Z" fill-rule="evenodd"/><path d="M98.4,108.8c-1.24-.06,0-2.56-1.83-2,.2,2.18,3.55,8.43,4.62,9.45-3-2.16-3.41-7.15-6.44-8.59-1,2.12,2.25,8.64,2.25,10.95-2.9-2-2.34-9.81-5.47-10.41a18.14,18.14,0,0,1,.54,7.73c-1.45-2.35-1.63-9.62-3.55-10.41a10.92,10.92,0,0,1-1.5,7.4,1.53,1.53,0,0,1-1.18-1,.51.51,0,0,1,.54-.11,3,3,0,0,1-1.08-.54c-.49,3.75,3.81,1.2,4-3.22,1.66,2.57.36,6.79,2.68,9,2-.65.62-4.68.75-6.12.58.43,2.9,5.46,2.9,6-.15,0,.29,2.79,1.61,2.79,1.14-.83-1.23-9.24-.75-9.23,1.1.45,2,4.31,3.3,5.22C104.72,119.18,98.43,110.19,98.4,108.8Z" fill-rule="evenodd"/><path d="M79.08,114.06c.43,1.35,3.65,4.09,3.65,4.51.57-.95.53-6.51-1.29-6.55-.13-.82,2.86-2.94,3.22-4.83A3.69,3.69,0,0,1,84,107c-1.21.93-.79,2.82-3,3.43.27-1.69-.75-2.22-.43-3.22-1.24-.2,2.32,9.09,2.36,10.42C81.54,117.11,79.84,114.88,79.08,114.06Z" fill-rule="evenodd"/><path d="M78.54,114a1.4,1.4,0,0,1,1.08-.11c-.2-.55-1.32-.84-1.4-1.5,0,.22-.14.29-.32.21C77.84,113.05,79.28,113.28,78.54,114Z" fill-rule="evenodd"/><path d="M142.73,115.14c-.1,0,0,.88.32,1A2.72,2.72,0,0,0,142.73,115.14Z" fill-rule="evenodd"/><path d="M47.63,119.86a1.88,1.88,0,0,0,.11,1,1.08,1.08,0,0,1-.43-.33c-.51,2.8.26,5.78.43,8.59a1.17,1.17,0,0,1-.54.22c-.41-2.86-.74-6.56-1-9.34a.72.72,0,0,0,.65-.75A.8.8,0,0,1,47.63,119.86Zm-.54,7.84c-.27,0-.25.4-.1.53C47.32,128.16,47.13,128,47.09,127.7Z" fill-rule="evenodd"/><path d="M97.76,131c.47-.36.75-3.5.1-4.29C97.27,126.63,97.67,130.18,97.76,131Z" fill-rule="evenodd"/><path d="M123.52,123.72c-.66-.13,1.57,7.27.85,7.73-.69.15-.2-1.82-1.28-1,0,.19,1.55,1.37,1.61,1.61A14.06,14.06,0,0,0,123.52,123.72Z" fill-rule="evenodd"/><path d="M54.28,131.56c.38,2.59-1,4.76-.53,7.51.64.17,1.81-6,1.5-6.76C54.73,131.11,55.16,132.3,54.28,131.56Z" fill-rule="evenodd"/><path d="M44.73,144.87c1.58.36.19-9.66,2.36-9.88a2.19,2.19,0,0,0,.43,1.61c.3-.33.3-.41,0-.21-.22-2.51,1-2.29,1.84-1.23a52.37,52.37,0,0,1,1,6.17,2.22,2.22,0,0,0-.64-.54c.21,1.49.1,4.23,1.82,4.4-1.05-.07-3.69,15.57-4.07,15.46.9-5.3.81-9.8,2.79-14.06a1,1,0,0,1-.65-.43c.17.55-4.41,9.33-4,9.34a2.42,2.42,0,0,1-.32-1.51c-1.25,7-.58,12.73-3.11,19.43a.72.72,0,0,0-.76-.21c.4-4.33,2-8.11,2.26-12,.39-5.12.24-8.91.43-14.42.66-.18.45,5.36.53,5.69-.09-.66.61-5.42,1.08-5.8.07,1.41-.37,6.87.11,7.3,1.27-2,1.64-15.63.64-15.45.3.27-.09,9.68-2.05,6.21-.83-1.45.81-9.86-.53-10.4-.23,1.27.05,8.24-1.71,7.62.05-1.24-.57-1.89.64-1.72-.15-.8.07-8.33,1.61-7.94C44,135.87,45.24,140.87,44.73,144.87Zm3.44-9.55c-.07.68-.15,1.36-.22,2C48.63,137.21,49.58,135.27,48.17,135.32Zm.75,1.82c-.51-.48-.78.8-.32,1.18A11.21,11.21,0,0,0,48.92,137.14ZM48.49,145c-1.44,0-.13-5-1.29-5,.2,2.21.15,4.69,1.07,6.76-.58-1.32-.37-1.79.65-1.39a.92.92,0,0,0-.43,1c3.75-.21-.71-7.9-.54-7.94C47.69,139.63,47.75,143.7,48.49,145Zm-.86-7c-.14-.32-.29-.64-.43-1,0,1,0,1.94-.11,2.9C48,139.51,46.89,138.32,47.63,138Z" fill-rule="evenodd"/><path d="M124.91,141.76c.21-1.59-1.08-5.19.81-3.1.77.85.69,5.67,1.77,6-.09-1.51-1.51-6.48-.65-7.72.07,1.2,2.46,7.18,3,9,.78-.62-.07-7.79-.43-9.12,1.24-.34,1.81.27,1.72,1.82.25-1.84-.12-3.87.1-4.93-.5-.66-.59.48-.53-.65a1.18,1.18,0,0,1,.53.22c.23-.33.16-.55-.21-.65a49.71,49.71,0,0,0,1.18,6.34.46.46,0,0,0-.43-.11c1,.4.21,10.36.27,10.36-1.13,0-1-9.12-1.66-10.58-1.54.29,1.42,10.09.53,11.17a7.88,7.88,0,0,1-1.18.21c.06-.57.17-4.67-1.07-5.47.31.23.56.2.75-.11-1.42-.36-.74-2.49-1.5-3.76,0,1.28,1.7,8-.11,8.7-2-1.84-.74-6.32-1.93-8.16-.29,1.82.35,4.1.54,6,.25,2.37.53,6.48-1.47,4.19-.61-.69-1-3.75-1-4.89.74-.22,1,4.27,1.6,4.94C126.31,151.15,125.55,142,124.91,141.76Zm2.79,3.86c-.39-.1-.15.42-.21.64C127.76,146.25,127.7,145.91,127.7,145.62Z" fill-rule="evenodd"/><path d="M109.24,134.89c.16-.94,0-.7-.33.25-.58,2-.15,3.34-1.39,5.11C109,140.48,109.35,135.67,109.24,134.89Z" fill-rule="evenodd"/><path d="M62.12,143.8c-.67-1.78-.29-4.6-1.07-6-1,.74-2.94,10.69-2.15,11.91,1.6-1.7,1.84-7,1.93-9.23,1,2.81.73,5.31,1.4,8.05a1.22,1.22,0,0,0,.32-.32c0,.11-.5,4.05.38,3.79.47-.13.87-9.23.91-10.13a2.78,2.78,0,0,1,.32,1.94c.64-.74.35-3.87-.54-3.87-.82,2.34-.59,5.42-1.07,7.94C62.48,146.69,61.64,145,62.12,143.8Z" fill-rule="evenodd"/><path d="M37.65,141.76c.2-.73,1.53,3,1.5,2.89-.07-.51-1.68-2.91-2.36-2.79.52.8-.82,5.76-.95,6.9-.39,3.39,0,8.46-.23,10.49.6,0-.25,9.78-.54,10.52l-.75-.21c0-5.24,1.43-8.75,1-14.39-.32.67-2.09,10.59-2.15,10.52A9.43,9.43,0,0,1,32,171.38c-.06,0,.33-10.66,1.18-11.27a17.35,17.35,0,0,0,.11,3.11,28.61,28.61,0,0,0-.43-5.26,4.79,4.79,0,0,1,.51-2.94c.67-1.37-2.53,2.34-.08-1.35a1.12,1.12,0,0,1-.33.32c-.46-.91.16-4.43.33-4.93-.31-.05-1.39-5.36-1.18-6.55l.64.1c.8,3.19.44,5.4,2.36,7.73.67-3.16-.21-7.4,1.18-10.3C37.56,140.22,37.29,141.59,37.65,141.76Zm-3.22,12.88c.4.63-.08-3.59-.22-4.08C33.56,150.93,34.23,154,34.43,154.64Zm-1.18,8.91a.6.6,0,0,0-.22.75A1,1,0,0,0,33.25,163.55Z" fill-rule="evenodd"/><path d="M41.62,150.45c-.39-1.12-1.27-9.17,0-9,2.28,2.58,1.55,6.85,2.15,10.09l-.43-.21a2.9,2.9,0,0,0-.43-2.68c-1.32,2.36-.51,11.93.21,14.92-2.09-.15,0-1-1.07-1.29-.13,1.26-.22,3.12-1.07,4.18-.52,0,.09-9.21.53-10.52,0,.26.05.34.22.22-.42-.43-.6-3.14-.11-3.54q0,.39.21.21A2,2,0,0,1,41.62,150.45Zm1.29-4.19c-.74-.12,0,.87,0,.86A3.53,3.53,0,0,1,42.91,146.26Zm0,1.19a1,1,0,0,0-.11,1C43,148.2,43.12,147.69,42.91,147.45Z" fill-rule="evenodd"/><path d="M113.75,146.16c-.5-.25-2.62-.84-1.29-2.36,0,.29.2,1.29.86,1.18,1.6-5,.88,0,2.9,2,.21-1-.68-3.21.21-3.65,1.17.91.85,4.91,1.4,6.22a10.64,10.64,0,0,0-1.18-2c0,.69-.32,1-1,.86-.63-.89,0-4.85-1.4-5.15A7,7,0,0,1,113.75,146.16Zm3,.43C116.84,146.66,117.11,147.85,116.75,146.59Z" fill-rule="evenodd"/><path d="M66.2,143.47c-1.24,2-.84,7.49.21,9.45.18-.09.19-8.26.22-9.34.46.94.89,6.95.43,7.19a2.37,2.37,0,0,1,.53,1.93c1.24.36,1.08-3.69,1.19-4.29.35.05.52-.93.21-2.36-1.43-.05-1.07,4.11-1.18,4.83-.79-2.82,0-5.87-.86-8.69C66.13,142.31,65.88,142.74,66.2,143.47Z" fill-rule="evenodd"/><path d="M16.93,152.81c1.21,0,1.34,13.27,1.08,14.6a.59.59,0,0,1,.75,0c.53-3.45.6-20.52-4-21.25C15.54,148.32,17.5,150.31,16.93,152.81Z" fill-rule="evenodd"/><path d="M148.74,148.2c-.31.09-.07,1.21.21,1.28C149.34,149.32,148.75,148.22,148.74,148.2Z" fill-rule="evenodd"/><path d="M74.14,151a1.16,1.16,0,0,0-1.07-1.29c.28.81.5,4.77-.11,5.47a.51.51,0,0,0,.54.11S73.58,151,74.14,151Z" fill-rule="evenodd"/><path d="M19.72,155s-.48-3-1-3.33c1,1.07.45,8.31.52,10.14s-.09,3.82.55,5.32C20.14,165.2,18.36,155.27,19.72,155Z" fill-rule="evenodd"/><path d="M56.86,156.68c0,.77-1.29,2.7-.54,3.43,0-.12-.54.44-.75,1,.07,0,1-.12,1,.21.4-2.29,1-5.1,1.07-7C57,154.31,56.16,156.58,56.86,156.68Z" fill-rule="evenodd"/><path d="M128.88,154.85a17.53,17.53,0,0,1,3.33,6.44c-1.37.33-3.33-4.44-4.4-4.94-.86.51,1.22,5.71,1.18,6.87-1.2-.13-2.86-4-3.22-5,1.11,0,1.58,2.67,2.47,3.43,0-.58-3.07-7.57.11-5.58C127.74,155.28,127.92,154.89,128.88,154.85Zm1.4,2.9a4.38,4.38,0,0,0-1.5-1.83.33.33,0,0,0-.33.33C128.61,156.3,130.47,158.34,130.28,157.75Zm.21.43c-.11-.72-.61.51.32,1A1.93,1.93,0,0,1,130.49,158.18Zm-2,3.54C128,161.72,128.45,162.77,128.45,161.72Z" fill-rule="evenodd"/><path d="M124.8,160.86c-.12,1.09.25,2.52.11,3.54,3-1.89-.62-4.81.43-6.54.65.23.07-.16.64,0C123.11,156.91,125.21,158.06,124.8,160.86Z" fill-rule="evenodd"/><path d="M149.06,165.91c.75,0,.36-.59,1.18-.65-.39-.58-.85-.61-1.39-.1C148.91,165.35,149.93,165.34,149.06,165.91Z" fill-rule="evenodd"/><path d="M61.69,25.84a27.06,27.06,0,0,0,4.08,4.07C65.47,28.09,64,25.41,61.69,25.84Z" fill-rule="evenodd"/><path d="M60.29,34.53c1.36,0-.14-.91-.37-1.49-.69-1.72-1.29-.76-1.18-3.18.07-1.7,2.34-3.13,2.41-3.92-2.18.12-2.59,1.29-3.16,3.38C56.94,33.18,58.55,31.78,60.29,34.53Z" fill-rule="evenodd"/><path d="M56.54,26.05c-.35.17-1.86,1.6-.75,2.9C56.75,28.08,56.52,26.28,56.54,26.05Z" fill-rule="evenodd"/><path d="M67.7,26.59c-1.3,0,1.74,5.59,0,5.15.61,1.56,1.28-2,1.28-2.08,0-.95-.93-1.68-1.06-2.64C66.86,27.42,67.84,26.9,67.7,26.59Z" fill-rule="evenodd"/><path d="M50,26.48c-.27.34-.2,3.77-.86,3.76a2.81,2.81,0,0,0,1.29,0C49.57,29.66,50.28,27.26,50,26.48Z" fill-rule="evenodd"/><path d="M68.56,33.13c-1,1.09-1.88,1.49-2.68,2.36C67.47,36.48,68.54,34.32,68.56,33.13Z" fill-rule="evenodd"/><path d="M53.32,32.92c-.23,1.29,1,2,1.07,2.36C55,34.78,53.69,33.07,53.32,32.92Z" fill-rule="evenodd"/><path d="M64.27,36.57c.31.89,2.82.33,2.25-.75Z" fill-rule="evenodd"/><path d="M51.28,35.07c-.78,2,1.93,4.69,3.33,5.47C54.25,39.16,52.13,36.39,51.28,35.07Z" fill-rule="evenodd"/><path d="M46.56,34.31c-.23.18.78,3.63.86,3.87.4,1.27,1,4.35,3.11,4.83-.65-1.62-1.57-1.85-2.06-3C47.7,38.11,47.39,36.22,46.56,34.31Z" fill-rule="evenodd"/><path d="M70.06,38.39c-.49.14-2.5.87-2.47,1.51C68.29,40.08,70.14,39.66,70.06,38.39Z" fill-rule="evenodd"/><path d="M60.83,41.51c0,.76,2.15,1.72,2.69,1.18C63.63,42,61.11,41.48,60.83,41.51Z" fill-rule="evenodd"/><path d="M65.56,42.9c-.74.77-.45-.9-.65.54.94.35,2.92,1.2,4.08,0C68.1,42.19,66.45,44.69,65.56,42.9Z" fill-rule="evenodd"/><path d="M8.56,44.83c-1.14-.88.87,2.55.86,2.69C11.24,46.91,8.49,45.39,8.56,44.83Z" fill-rule="evenodd"/><path d="M47.52,44.62c.26-.32,3.25,4.53,3.65,4.94C51.15,49.19,48.2,43.43,47.52,44.62Z" fill-rule="evenodd"/><path d="M56.65,48.48c-.1,0-1.29,0-1.51,0,.21.35,3,3,3.22,2.79C58,50.61,56.72,49.29,56.65,48.48Z" fill-rule="evenodd"/><path d="M3.94,51.17c.3.54-.36.46-.08.75S9,56.77,10.17,57C10.76,56,4.67,51.57,3.94,51.17Z" fill-rule="evenodd"/><path d="M73.28,50.52c1.23-.13-6.49,5.07-6.22,3.22C71,53.58,72.71,53.67,73.28,50.52Z" fill-rule="evenodd"/><path d="M8.67,62.87c.62-.66,3.59,3.76,4.4,2.89-1.45-1.65-6.35-6.46-8.37-5.9C6,60.77,7.24,61.92,8.67,62.87Z" fill-rule="evenodd"/><path d="M27.45,66.73c.38.43.37.94,1.18.43-.18-1.28-2.47-4.25-3.76-4.72C25,62.56,27.68,66.26,27.45,66.73Z" fill-rule="evenodd"/><path d="M69.2,65.33c.53.12,1.46,2.75,1.51,3.44,1.61-.21-3.17-6.17-3.54-6.55C66.37,62.33,69.16,65.83,69.2,65.33Z" fill-rule="evenodd"/><path d="M65,67.05c-.47,0-.72-.33-.75-.86a1.44,1.44,0,0,0-.33.32c1.56,2.51,3.61,4.72,4.4,7.63C69.89,74.13,65.07,67.38,65,67.05Z" fill-rule="evenodd"/><path d="M9.74,68.34c-.55.46,3.95,4.41,4.72,4.08C13.85,69.71,11.15,70,9.74,68.34Z" fill-rule="evenodd"/><path d="M9.53,70.49c-.56.27,4.45,4.26,4.83,4.72C15.12,74.49,10,70.73,9.53,70.49Z" fill-rule="evenodd"/><path d="M65.34,70.49a2.75,2.75,0,0,1-1.4-1.29s3.55,6.21,3.65,6.22C68.07,73.16,65.71,72.37,65.34,70.49Z" fill-rule="evenodd"/><path d="M23.69,74.89c0,.47,2.87,2.68,3.33,2.79C26.29,76.58,25.32,74.75,23.69,74.89Z" fill-rule="evenodd"/><path d="M104.84,99a62,62,0,0,0,5.47,3.11C110.72,100.53,106.3,98.67,104.84,99Z" fill-rule="evenodd"/><path d="M105.91,104.3c1.86.26,2.5,3,3.44,4.07,1.17-.86-4.9-7.71-7.09-7.62C102.51,102.14,105.4,102.76,105.91,104.3Z" fill-rule="evenodd"/><path d="M49.67,121.69c-1,.51-.72,6.36-.11,6.22-1.14-.55,1.31-7.12,1.72-7.94C50.69,118.11,49.16,120.77,49.67,121.69Z" fill-rule="evenodd"/><path d="M52.35,119.75s-1.46,4.61-1.29,5.26C53.18,124.2,52.33,120.48,52.35,119.75Z" fill-rule="evenodd"/><path d="M44.73,120.83c-2.11,1.43,1,8.72,1.72,11.27,1.07-1.44-1.46-8.39-1.72-10.09a2.08,2.08,0,0,1,.75.86A2.58,2.58,0,0,0,44.73,120.83Z" fill-rule="evenodd"/><path d="M130.17,121.9c-.28.27-.34,5.37-.54,5.37a1.16,1.16,0,0,0,.65.43C130.89,125.94,130.45,123.66,130.17,121.9Z" fill-rule="evenodd"/><path d="M122.44,127.05c.11.46,1.2,2.62,1,3.11a9.85,9.85,0,0,0-1-1.5,19.71,19.71,0,0,1,.54,4.94c-1.69-.46-1.22-3.84-2.47-4.94.22,1.9,1.15,5.89-.32,7.19.39-2.56-1.49-7.32-.65-9.87,1.51.65,1,2,1.29,3,.83,0,1.54,2.19,1.18,2.9a.72.72,0,0,0,.65-.11c-.56-2.35-1.55-4.82-1.93-7.08C121.63,124.55,122.33,127.12,122.44,127.05Zm.22,4.94c-.41-.08-.24.69.1.54A.69.69,0,0,1,122.66,132Z" fill-rule="evenodd"/><path d="M126,123.4a1.5,1.5,0,0,0-.85.22c0,.19,1.47,5.46,1.5,5.47C127.53,129.33,126.06,123.81,126,123.4Z" fill-rule="evenodd"/><path d="M95.18,126.51c.53.84.15,4.31.43,5.26.84-1.15-.72-4.78.43-5.26A.56.56,0,0,0,95.18,126.51Z" fill-rule="evenodd"/><path d="M92.6,127.7c0,.29,1.38-.78-.53-.54-.35,1.71.89,4.6.32,5.9C92.9,132.52,93.52,128.23,92.6,127.7Z" fill-rule="evenodd"/><path d="M115.68,132.63c-.66,1.39-.76,5.23-.75,6.34,2.2-1,1-8.23,1.18-10.31h-.64C115.89,129.73,115,131.67,115.68,132.63Z" fill-rule="evenodd"/><path d="M40.55,136.07c-.64,1.34-1.89,6.1-1.29,7.73,1.09-.06,1.7-7.53,1.82-9.13a2.69,2.69,0,0,1,.43,1.93c.58-.8.75-4.17-.75-4.18C40.16,133.23,40.17,136,40.55,136.07Z" fill-rule="evenodd"/><path d="M58,134.46c-.32-.16-2.65,8.24-1.72,9.44,1.51-1.31,1.35-6.24,1.4-8.05a6.78,6.78,0,0,1,.43,1.83A4.63,4.63,0,0,0,58,134.46Z" fill-rule="evenodd"/><path d="M119.44,152.06c.22,0-.32-12.75,0-13.2.1.78,2.19,12.76,2.68,12.88,1.83-2.24.16-13-.64-15.67,1.63-.63,2.63,9,2.68,10.19-1-1-.08-2.72-1.18-3.65,0,1.38,1,9.32-.73,9.85-1,.29-1.57-6.81-2-7.91-.11,3.17.75,6.93-.86,9.87,0,.26-3.07-3.36-1.08-3.22.09.21-.06,2.85,1,2.58C119.37,153.36,120,152.74,119.44,152.06ZM123,140.68a2.24,2.24,0,0,0,0,1.83.38.38,0,0,1,.43-.43C123.44,141.78,122.8,141.37,123,140.68Z" fill-rule="evenodd"/><path d="M108.27,147.34c-2.5,1.06,4-.72,1.72-2A3.32,3.32,0,0,0,108.27,147.34Z" fill-rule="evenodd"/><path d="M151.21,146.37c-.9-.2-.69,5.15-.86,6C151.21,152.38,151.18,147.21,151.21,146.37Z" fill-rule="evenodd"/><path d="M71,149.48c.14-.17.79-1.26,0-1.39-1.55,1.53.23,4.58-.86,6C70.87,154.59,71.17,149.82,71,149.48Z" fill-rule="evenodd"/><path d="M51.17,153.13c-.47.42-.47.7,0,.86-.09.3-1.2,6.53-.43,6.44.63-2.46.47-5,1-7.51a5.63,5.63,0,0,0,.75,1.61c.07-.94.33-4.89-1.4-4.51A6.54,6.54,0,0,0,51.17,153.13Z" fill-rule="evenodd"/><path d="M53.53,154.64c1.1,1.38-1.28,5.22,0,7,.2,0,1.94-9.86.54-10.3C53.53,151.74,54.58,154.46,53.53,154.64Z" fill-rule="evenodd"/><path d="M76.5,150.88c-.12,0-1.11,4.32-.43,5.15C77.21,155.31,77.07,151.83,76.5,150.88Z" fill-rule="evenodd"/><path d="M94.64,158.61c.24.59-1.48.63-1.61,1.29a4.59,4.59,0,0,0,2.47-5.59C94.34,154.29,94.66,158,94.64,158.61Z" fill-rule="evenodd"/><path d="M96.9,158.07c-1,.13.31.79,0,2.15.84-.75,1-3.46.21-4.08Z" fill-rule="evenodd"/><path d="M118.9,160.86c.93.89-.22,3-.11,3.87,2.39.39,0-6.67,1.72-6.55C118.26,157.12,119.66,160.76,118.9,160.86Z" fill-rule="evenodd"/><path d="M59.65,160A16,16,0,0,0,58,162.58c-.25-.06-.26-1.35-.21-1.5C53.68,163.48,62.15,164.24,59.65,160Z" fill-rule="evenodd"/><path d="M110.64,162.79c-.86.39.46,2.08.43,2.58A2.28,2.28,0,0,0,110.64,162.79Z" fill-rule="evenodd"/></svg>
